<?xml version="1.0" encoding="utf-8"?>
<!-- Generator: Adobe Illustrator 27.5.0, SVG Export Plug-In . SVG Version: 6.00 Build 0)  -->
<svg version="1.1" xmlns="http://www.w3.org/2000/svg" xmlns:xlink="http://www.w3.org/1999/xlink" x="0px" y="0px"
	 viewBox="0 0 1100 800" style="enable-background:new 0 0 1100 800;" xml:space="preserve">
<g id="background">
	<rect style="fill:#FFFFFF;" width="1100" height="800"/>
</g>
<g id="shadow">
	<g>
		<path style="fill:#F1F2F2;" d="M524.972,683.509c-26.113,0.07-52.225,0.635-78.291,3.243c-9.828,0.984-19.451,3.147-29.301,4.02
			c-19.676,1.743-39,4.995-58.747,6.495c-15.901,1.208-31.869,1.921-47.724,3.453c-14.865,1.437-31.321,1.105-46.072-1.268
			c-10.92-1.757-21.89-2.747-32.627-5.569c-12.01-3.158-25.058-5.415-37.572-5.334c-17.845,0.116-35.223,0.129-52.3,5.705
			c-5.995,1.957-13.333,5.174-17.885,9.282c-10.421,9.402-11.831,32.863-1.426,42.615c17.525,16.412,54.93,22.852,79.495,23.156
			c26.918,0.333,53.069-1.465,80.027-2.522c25.05-0.982,50.037-2.38,75.128-2.331c51.246,0.101,102.499,0,153.653-3.08
			c48.06-2.894,97.861,5.197,146.027,5.197c49.392,0,96.829-6.748,145.865-0.842c21.365,2.574,43.132,3.474,64.604,5.278
			c19.231,1.615,37.71-0.032,56.864-1.524c16.083-1.253,32.062-4.97,46.673-11.253c11.566-4.974,32.185-20.425,35.732-32.296
			c9.944-33.282-140.138-32.482-163.181-32.407c-25.778,0.084-51.761,0.847-77.519-0.038c-10.835-0.372-21.511-2.277-32.085-4.365
			c-10.533-2.08-21.146-1.551-31.827-2.425c-44.544-3.645-89.186-3.112-133.872-3.112
			C554.07,683.584,539.521,683.47,524.972,683.509z"/>
	</g>
</g>
<g id="object">
	<g>
		<g>
			<g>
				<polygon style="fill:#AA6755;" points="272.269,277.534 269.129,263.91 263.294,265.087 263.395,274.925 260.396,274.19 
					264.492,285.499 270.711,285.101 				"/>
			</g>
			<g>
				<path style="fill:#CCD2D9;" d="M211.581,395.903c-0.35-1.057-0.558-2.237-0.599-3.535c-0.168-5.384,2.235-10.624,5.6-14.846
					c5.328-6.685,12.794-11.739,18.841-17.778c6.917-6.908,13.834-13.815,20.751-20.723l5.656-56.863l12.372-0.153l6.274,69.928
					c-9.627,8.723-19.067,17.21-28.08,26.472c-8.079,8.303-15.075,18.907-26.319,23.067
					C219.728,403.82,213.505,401.713,211.581,395.903z"/>
			</g>
		</g>
		<g>
			<g>
				<path style="fill:#8EC3CB;" d="M866.93,69.542c0,0-64.233,69.633-64.865,128.291c-0.633,58.658,43.125,73.067,62.692,73.278
					c19.568,0.211,63.625-13.251,64.258-71.909C929.647,140.544,866.93,69.542,866.93,69.542z"/>
				<path style="opacity:0.4;fill:#FFFFFF;" d="M824.767,221.201c-0.008-0.042-0.016-0.084-0.025-0.126
					c-0.571-2.847-1.425-5.288-1.461-8.23c-0.051-4.277,0.1-8.556,0.422-12.822c0.664-8.79,2.047-17.519,3.938-26.126
					c3.873-17.633,9.832-34.782,16.959-51.35c3.205-7.45,6.661-14.792,10.333-22.023c1.734-3.414,3.516-6.803,5.345-10.166
					c0.474-0.87,5.66-9.287,5.378-9.579c-0.106-0.11-0.166-0.17-0.166-0.17s-57.956,69.885-55.599,126.054
					c0.152,3.629,0.48,7.251,1.013,10.844c0.256,1.723,0.559,3.439,0.913,5.144c0.304,1.467,0.081,2.935,0.845,4.274
					c1.264,2.219,3.678,3.739,6.225,3.922c2.247,0.162,4.242-0.516,5.12-2.631C824.924,226.006,825.213,223.555,824.767,221.201z"/>
			</g>
			<path style="opacity:0.4;fill:#FFFFFF;" d="M832.793,237.039c-1.065-1.068-2.6-1.74-4.113-1.756
				c-1.143-0.012-2.452,0.392-3.448,1.091c-2.306,1.298-3.477,3.845-2.889,6.583c0.857,3.993,5.665,5.642,9.027,3.728
				C834.811,244.728,835.657,239.911,832.793,237.039z"/>
		</g>
		<g>
			<g>
				<polygon style="fill:#EFBFA5;" points="856.916,275.187 858.865,262.598 864.247,263.281 864.808,272.227 867.484,271.361 
					864.512,281.91 858.834,281.961 				"/>
			</g>
			<g>
				<path style="fill:#D34E4E;" d="M919.925,378.73c0.248-0.984,0.359-2.07,0.309-3.252c-0.205-4.904-2.736-9.507-6.075-13.12
					c-5.286-5.722-12.406-9.819-18.302-14.906c-6.745-5.818-13.489-11.637-20.233-17.455l-8.914-51.301l-11.254,0.682l-1.06,63.966
					c9.328,7.288,18.47,14.374,27.275,22.193c7.893,7.009,14.955,16.181,25.449,19.216
					C913.047,386.466,918.562,384.138,919.925,378.73z"/>
			</g>
		</g>
		<g>
			<g>
				<g>
					<polygon style="fill:#474EBB;" points="966.301,515.43 970.669,545.486 961.903,715 947.199,711.916 922.806,519.206 					"/>
				</g>
				<g>
					<polygon style="fill:#474EBB;" points="894.071,509.785 891.231,622.164 919.773,719.171 936.41,712.984 922.398,626.473 
						935.264,508.826 					"/>
				</g>
				<g>
					<path style="fill:#3B455A;" d="M936.468,703.9l-19.917,9.129l6.686,13.927l-10.446,6.581c0,0-0.984,5.799,2.524,8.247
						c3.509,2.448,26.233-16.64,26.233-16.64L936.468,703.9z"/>
				</g>
				<g>
					<path style="fill:#3B455A;" d="M966.301,707.194l-21.604,3.648l2.843,15.185l-11.796,3.645c0,0-2.455,5.345,0.298,8.619
						c2.753,3.275,29.653-9.263,29.653-9.263L966.301,707.194z"/>
				</g>
			</g>
			<g>
				<path style="fill:#3B455A;" d="M924.306,326.519c1.54,5.001,3.749,9.795,6.55,14.215c0.066-9.182,1.4-18.355,3.954-27.176
					c0.195-0.673,0.387-1.435,0.035-2.04c-0.33-0.565-1.022-0.79-1.658-0.944C921.829,307.831,921.622,317.801,924.306,326.519z"/>
			</g>
			<g>
				<g>
					<path style="fill:#EFBFA5;" d="M930.54,340.912c1.184,3.778,3.148,8.051,7.066,10.354c4.614,2.712,9.548,1.328,12.991-0.756
						c11.374-6.881,31.091-44.828,1.441-54.146C925.116,287.905,925.625,325.233,930.54,340.912z"/>
				</g>
				<g>
					<path style="fill:#3B455A;" d="M953.967,341.075c1.77,2.621,5.799,2.025,8.659,0.673c11.745-5.553,18.915-19.43,16.648-32.222
						c-1.897-10.704-15.13-19.017-18.164-5.885c-1.076,4.656,1.617,11.208,0.84,16.384
						C960.836,327.421,957.207,334.432,953.967,341.075z"/>
				</g>
				<g>
					<path style="fill:#3B455A;" d="M925.014,282.699c-13.501,7.468-19.537,23.911-31.884,33.163
						c11.094,5.087,24.278,5.414,35.611,0.883c11.115-4.444,37.472-7.138,34.026-22.539
						C959.259,278.53,936.843,276.156,925.014,282.699z"/>
				</g>
			</g>
			<g>
				<path style="fill:#D34E4E;" d="M977.387,379.705c7.73,13.42,7.695,28.617,6.627,43.154
					c-2.417,32.909,0.718,71.065-10.628,102.524c-21.417-0.019-62.476-9.841-83.808-12.034c-4.157-28.61-1.735-45.337,0.609-77.735
					c1.156-15.974,3.636-37.405,9.29-52.622c4.629-12.458,16.969-28.546,35.596-28.034
					C952.529,355.438,970.357,367.501,977.387,379.705z"/>
			</g>
			<path style="fill:#EFBFA5;" d="M942.501,361.6c-1.951,0.825-4.341,0.48-6.656-1.76c-1.992-1.928-1.378-2.557-0.955-5.397
				c0.623-4.187,1.737-8.353,2.599-12.5c0,0,11.529,2.397,11.532,2.398c-0.011-0.002-2.318,11.229-2.494,11.995
				C945.966,358.778,944.453,360.774,942.501,361.6z"/>
		</g>
		<g>
			<g>
				<g>
					<g>
						<polygon style="fill:#AA6755;" points="164.377,716.636 164.337,733.565 174.162,733.589 174.206,714.82 						"/>
					</g>
					<g>
						<polygon style="fill:#DEC099;" points="209.031,714.143 210.973,732.435 221.588,731.308 219.436,711.029 						"/>
					</g>
				</g>
				<g>
					<path style="fill:#4C4646;" d="M221.437,730.696l-9.541,2.138l-3.036,2.732l-0.189,7.211l24.838,4.611l0,0
						c2.401-2.909,1.415-7.302-1.999-8.905l-1.127-0.529L221.437,730.696z"/>
				</g>
				<g>
					<path style="fill:#3B455A;" d="M174.162,733.589l-9.825-0.023l-3.443,4.526l0.687,7.18l25.214,1.564l0.723-1.638
						c1.422-3.218-0.643-6.901-4.131-7.366l-0.558-0.074L174.162,733.589z"/>
				</g>
			</g>
			<g>
				<g id="XMLID_115_">
					<polygon style="fill:#8EC3CB;" points="142.12,553.689 151.432,637.156 155.135,730.606 186.726,730.715 199.365,495.395 
						148.449,496.194 					"/>
				</g>
				<g id="XMLID_113_">
					<g id="XMLID_114_">
						<polygon style="fill:#8EC3CB;" points="236.378,542.579 243.23,624.003 234.553,730.461 203.879,729.545 199.452,626.099 
							194.259,551.832 188.954,496.476 225.683,495.421 						"/>
					</g>
				</g>
			</g>
			<g id="XMLID_112_">
				<polygon style="fill:#CCD2D9;" points="217.181,360.551 152.008,369.268 144.848,387.324 143.709,449.79 137.243,503.327 
					220.5,503.702 241.268,498.447 234.739,442.328 231.605,380.426 				"/>
			</g>
			<g>
				<path style="fill:#AA6755;" d="M182.352,363.736c0.261-1.205,0.522-2.41,0.783-3.614c-0.038-0.02-0.077-0.037-0.115-0.057
					c-6.68-3.525-10.685-10.919-11.582-18.385c-0.586-4.871-0.005-9.773,1.199-14.549c1.063-2.794,2.497-5.433,4.279-7.782
					c3.225-4.252,7.925-7.983,13.007-8.639c2.066-0.267,1.475,1.476,3.75-0.199c0.307-0.226,0.644-0.642,0.968-1.144
					c0.429,0.339,0.727,0.579,0.808,0.639c2.794,2.088,5.625,2.839,8.783,4.167c4.794,2.015,8.087,7.434,7.947,13.078
					c-0.058,2.335-0.626,4.823,0.277,6.903c0.789,1.816,2.52,2.873,3.755,4.358c0.721,0.867,1.254,1.904,1.603,3.016
					c-3.331,9.421-11.21,17.856-20.352,20.239c-0.002,0.035-0.005,0.071-0.007,0.106c-0.034,0.57-0.071,1.139-0.136,1.699
					c-0.288,2.491-1.493,5.273-3.944,5.859c-1.119,0.268-2.291,0.015-3.415-0.237c-2.267-0.509-4.535-1.018-6.802-1.527
					c-0.464-0.104-0.981-0.246-1.217-0.657c-0.207-0.361-0.125-0.811-0.037-1.217C182.055,365.106,182.204,364.421,182.352,363.736z
					"/>
			</g>
			<g>
				<path style="fill:#3B455A;" d="M126.662,311.085c4.977-1.131,9.906,1.08,14.46,3.244c-0.087-5.065,4.108-9.256,8.453-11.342
					c4.344-2.087,9.15-2.87,13.326-5.352c5.019-2.983,9.553-8.494,15.129-7.861c5.019,0.57,8.973,5.908,12.807,10.592
					c0.065-0.096,0.13-0.193,0.195-0.288c1.902-2.763,4.027-5.464,6.784-7.174c8.913-5.529,9.782,6.59,17.029,4.747
					c1.748-0.445,3.018-2.096,4.569-3.109c2.931-1.913,6.632-1.39,9.744-0.136c3.111,1.254,5.989,3.169,9.244,3.953
					c2.89,0.695,5.993,0.474,8.761,1.571c4.159,1.648,4.06,5.883,5.349,9.517c1.427,4.023,3.487,9.418,6.295,12.49
					c2.023,2.213,4.789,3.42,7.218,5.099c2.429,1.678,4.697,4.201,4.759,7.372c0.059,3.005-1.875,5.771-2.067,8.78
					c-0.203,4.484,0.656,6.748-0.568,11.365c-0.632,2.383-1.343,4.908-3.066,6.576c-2.27,2.199-5.611,2.271-8.562,1.883
					c-2.95-0.388-6.011-1.095-8.869-0.029c-6.199,2.311-4.804,8.583-6.286,13.929c-0.988,3.562-3.31,6.526-6.22,8.513
					c-3.736,2.551-8.44,3.491-12.532,2.019c-6.172-2.221-9.944-9.132-9.915-16.08c0.011-2.526,0.683-4.951,1.043-7.422
					c0.136-0.932,0.231-1.87,0.225-2.823c-0.022-3.357-2.087-7.938,0.875-10.702c0.722-0.673,1.663-1.048,2.306-1.809
					c0.52-0.616,0.792-1.427,0.951-2.232c0.321-1.622,0.2-3.309-0.283-4.847c-0.349-1.112-0.882-2.149-1.603-3.016
					c-1.235-1.485-2.966-2.542-3.755-4.358c-0.904-2.08-0.335-4.568-0.277-6.903c0.14-5.644-3.153-11.063-7.947-13.078
					c-3.159-1.328-5.989-2.079-8.783-4.167c-0.081-0.061-0.379-0.3-0.808-0.639c-0.324,0.502-0.661,0.918-0.968,1.144
					c-2.276,1.675-1.684-0.068-3.75,0.199c-5.082,0.657-9.781,4.387-13.007,8.639c-1.782,2.349-3.216,4.989-4.279,7.782
					c-1.894,4.976-2.599,10.447-1.906,15.673c0.99,7.467,5.382,10.109,3.077,18.178c-0.512,1.792-1.22,3.527-2.089,5.17
					c-2.377,4.494-5.989,8.275-10.315,10.474c-0.519,0.087-1.039,0.148-1.559,0.192c-2.61,0.219-5.221-0.103-7.7-0.885
					c-2.473-0.78-4.816-2.015-6.894-3.632c-3.118-2.427-5.642-5.707-7.122-9.572c-0.806-2.105-1.418-4.483-3.109-5.822
					c-1.361-1.078-3.201-1.279-4.584-2.325c-5.755-4.348,2.066-15.249-1.209-21.987c-2.07-4.259-7.868-5.099-9.812-9.432
					C117.243,318.324,121.685,312.215,126.662,311.085z"/>
			</g>
		</g>
		<g>
			<g id="XMLID_109_">
				<g id="XMLID_111_">
					<polygon style="fill:#3B455A;" points="693.095,733.5 691.683,740.762 676.464,745.641 670.971,737.187 679.287,731.117 
						694.508,726.239 					"/>
				</g>
				<g id="XMLID_110_">
					<polygon style="fill:#CCD2D9;" points="725.783,552.544 694.273,731.285 680.018,731.802 671.552,607.521 667.549,545.79 					
						"/>
				</g>
			</g>
			<g id="XMLID_106_">
				<g id="XMLID_108_">
					<polygon style="fill:#CCD2D9;" points="768.895,550.644 748.643,725.846 735.572,727 721.743,592.748 710.774,553.169 					"/>
				</g>
				<g id="XMLID_107_">
					<polygon style="fill:#3B455A;" points="735.506,725.334 736.149,732.869 750.926,739.156 757.351,730.998 749.64,724.087 					
						"/>
				</g>
			</g>
			<g>
				<polygon style="fill:#CCD2D9;" points="670.971,555.766 664.525,535.126 670.971,511.708 768.895,515.117 768.895,550.644 				
					"/>
			</g>
		</g>
		<g>
			<g>
				<polygon style="fill:#AA6755;" points="582.081,372.782 580.16,381.535 565.328,380.047 562,371.304 566.899,364.914 
					572.302,369.521 572.662,367.879 571.352,365.877 573.382,364.596 				"/>
			</g>
			<g>
				<g>
					<polygon style="fill:#474EBB;" points="691.179,350.136 635.346,376.723 580.38,368.801 576.85,382.04 640.39,402.463 
						722.534,375.097 					"/>
				</g>
			</g>
		</g>
		<g>
			<g>
				<g>
					<path style="fill:#AA6755;" d="M703.143,299.156c9.899,6.179,23.89,2.644,32.934,10.102c5.88,4.849,8.06,13.522,6.667,21.273
						c-0.649,3.613-2.046,7.188-4.54,9.809c-1.619,1.701-3.638,2.939-5.75,3.873c-2.823,1.248-5.846,1.929-8.89,2.072
						c0.215,2.788,0.678,5.557,1.383,8.259c-5.685-0.647-11.371-1.293-17.056-1.94c0.361-3.325,0.722-6.649,1.083-9.974
						c-1.386-0.831-2.704-1.785-3.91-2.885c-7.296-6.653-10.467-17.83-7.849-27.666
						C698.441,307.472,700.789,303.275,703.143,299.156z"/>
				</g>
			</g>
			<g>
				<path style="fill:#3B455A;" d="M729.129,307.36c-0.409-0.151-0.82-0.293-1.231-0.427c-5.961-1.94-12.348-2.515-18.576-1.799
					c-4.265,0.49-9.049,2.114-10.52,6.628c-0.665,2.04-0.646,4.231-0.621,6.376c0.032,2.688,0.063,5.376,0.095,8.063
					c0.006,0.483,0.006,0.991-0.225,1.415c-0.7,1.29-2.785,0.725-3.666-0.45c-3.211-4.283-7.202-11.057-8.233-16.271
					c-0.841-4.253,0.688-9.235-1.092-13.248c-0.823-1.855-2.485-3.175-3.765-4.75c-2.768-3.406-3.691-8.226-2.377-12.413
					c0.842-2.685,2.638-5.154,5.176-6.371c4.201-2.015,9.257-0.277,13.808-1.275c2.309-0.506,4.432-1.709,6.763-2.104
					c4.913-0.833,9.685,2.041,13.429,5.329c3.744,3.288,7.132,7.197,11.704,9.179c3.668,1.59,7.789,1.792,11.566,3.101
					c6.301,2.184,11.333,7.52,13.515,13.821c2.446,7.061,1.868,15.935-3.375,21.471c-2.629,2.775-4.771,5.888-6.95,9.007
					c-0.756,1.083-5.11,5.086-4.783,0.884c0.253-3.261,1.556-6.375,1.787-9.637C742.122,315.938,736.14,309.95,729.129,307.36z"/>
			</g>
		</g>
		<g>
			<path style="fill:#474EBB;" d="M739.155,353.973l-47.357-3.949c0,0-15.612,20.345-32.8,78.872
				c-17.189,58.527-4.448,110.333-4.448,110.333s53.428-9.625,128.864-0.962l-21.977-145.221L739.155,353.973z"/>
		</g>
		<g>
			<g>
				<g id="XMLID_103_">
					<g id="XMLID_105_">
						<polygon style="fill:#EFBFA5;" points="506.878,294.801 512.372,289.04 512.176,281.999 513.625,281.188 514.667,282.951 
							516.153,277.047 520.086,274.116 526.225,276.148 529.928,281.773 527.25,287.763 520.994,292.337 513.807,300.55 						"/>
					</g>
					<g id="XMLID_104_">
						<polygon style="fill:#7FC5A3;" points="504.958,289.864 452.414,348.923 421.228,350.33 427.179,399.814 468.432,381.413 
							479.697,373.598 521.074,299.046 						"/>
					</g>
				</g>
				<g>
					<g id="XMLID_102_">
						<polygon style="fill:#3B455A;" points="420.854,726.738 420.854,733.434 438.025,742.02 446.61,733.434 438.025,724.849 
							436.917,724.849 436.641,726.738 						"/>
					</g>
					<g id="XMLID_101_">
						<polygon style="fill:#3B455A;" points="378.567,724.849 377.382,724.849 368.796,733.434 377.382,742.02 394.552,733.434 
							394.552,726.738 378.765,726.738 						"/>
					</g>
					<g>
						<g id="XMLID_100_">
							<path style="fill:#7FC5A3;" d="M378.81,472.623c2.26-11.437,4.027-21.992,4.188-27.716
								c0.487-17.217,2.654-74.079,2.654-74.079l10.509-21.75l1.94,0.019c-0.139-0.017-0.279-0.034-0.418-0.05
								c0.457,0.054-0.22-4.203-0.383-4.579c-9.137-0.311-20.912,4.842-26.675,12.023c-4.264,5.313-6.799,11.809-9.27,18.19
								c-6.956,17.968-10.11,34.615-13.58,53.509c-2.213,12.048-4.257,24.039-5.866,35.998c-1.782,13.245-3.039,26.452-3.402,39.581
								c-0.04,1.452-0.328,5.51-0.489,10.359c-0.338,10.157-0.121,23.743,4.084,24.25c0.787,0.095,1.547-0.259,2.239-0.602
								c5.41-2.673,9.672-6.162,14.441-9.211l0.256-52.982L378.81,472.623z"/>
						</g>
						<g id="XMLID_99_">
							<path style="fill:#7FC5A3;" d="M475.46,527.076c-1.076-11.275-2.192-22.547-3.556-33.79
								c-2.72-22.425-6.424-44.797-12.689-66.505c-2.394-8.293-5.155-16.471-7.915-24.646c-3.361-9.955-6.723-19.909-10.084-29.863
								c-4.178-12.372-11.228-21.088-23.574-25.416c-2.205-0.773-4.526-1.369-6.918-1.806c-0.059,0.256-0.112,0.515-0.144,0.788
								c-0.143,1.188-0.477,2.506-1.216,3.368l8.103,0.079c0,0,22.862,81.251,23.702,95.254c0.319,5.323,1.382,16.944,2.563,29.185
								l12.415,1.859l0.532,46.824c0.695,0.203,1.386,0.4,2.072,0.585c3.939,1.063,7.144,3.982,10.416,6.272
								C474,532.646,476.12,533.985,475.46,527.076z"/>
						</g>
						<g id="XMLID_98_">
							<path style="fill:#7FC5A3;" d="M443.731,473.724c1.87,19.373,4.04,40.304,4.04,40.304s-10.037,0.241-24.557,1.342
								c1.074-0.026,2.148-0.054,3.221-0.064c10.099-0.091,20.574,4.272,30.243,7.101l-0.532-46.824L443.731,473.724z"/>
						</g>
						<g id="XMLID_97_">
							<path style="fill:#7FC5A3;" d="M375.963,521.262c-6.923,0.367-7.784-0.937-7.784-0.937s6.246-25.511,10.631-47.702
								l-19.771,2.96l-0.256,52.982c1.677-1.072,3.416-2.09,5.291-2.999C367.832,523.747,371.845,522.36,375.963,521.262z"/>
						</g>
						<g>
							<path style="fill:#7FC5A3;" d="M456.678,522.407c-9.669-2.829-20.144-7.192-30.243-7.101
								c-1.073,0.01-2.147,0.038-3.221,0.064c-0.899,0.068-1.814,0.14-2.746,0.215c-6.768,0.544-14.371,1.271-22.309,2.235
								c-0.39,0.048-0.778,0.093-1.169,0.142c-10.154,2.21-16.746,3.074-21.027,3.301c-4.117,1.098-8.131,2.485-11.889,4.305
								c-1.876,0.908-3.614,1.927-5.292,2.999l-0.053,11.033l19.358,187.394h15.872v1.908h0.091l17.452-125.696l0.072-0.708
								l9.561,126.404h0.091v-1.908h15.949l20.229-140.759L456.678,522.407z"/>
						</g>
						<g>
							<path style="fill:#FFFFFF;" d="M443.731,473.724c-1.182-12.242-2.244-23.862-2.563-29.185
								c-0.84-14.004-23.702-95.255-23.702-95.255l-8.103-0.079c-0.089,0.104-0.181,0.204-0.282,0.294
								c-0.25,0.221-0.539,0.395-0.872,0.506c-0.662,0.222-1.38,0.141-2.073,0.057c-2.679-0.322-5.358-0.645-8.036-0.967
								l-1.94-0.019l-10.509,21.75c0,0-2.167,56.862-2.654,74.079c-0.162,5.725-1.928,16.28-4.188,27.716
								c-4.385,22.191-10.631,47.702-10.631,47.702s0.861,1.304,7.784,0.937c4.28-0.227,10.873-1.091,21.026-3.301
								c0.392-0.049,0.779-0.094,1.169-0.142c7.938-0.964,15.542-1.69,22.309-2.235c0.932-0.075,1.848-0.146,2.746-0.215
								c14.52-1.101,24.557-1.342,24.557-1.342S445.601,493.097,443.731,473.724z"/>
						</g>
					</g>
				</g>
				<g>
					<g>
						<path style="fill:#3B455A;" d="M424.051,297.283c2.034,4.101,2.879,8.747,2.845,13.34c-0.009,1.221,0.002,2.633,0.934,3.403
							c0.998,0.824,0.001,2.466,0.842,1.477c0.841-0.989,3.701-4.427,3.887-5.721c0.436-3.031,0.588-6.104,0.451-9.164
							c-0.119-2.661-0.51-5.456-2.112-7.564c-0.95-1.25-2.255-2.162-3.542-3.047c-1.865-1.284-3.789-2.581-5.979-3.116
							c-3.775-0.922-6.183,0.346-2.957,3.226C420.731,292.18,422.658,294.473,424.051,297.283z"/>
					</g>
					<g>
						<g>
							<path style="fill:#EFBFA5;" d="M397.732,348.049c5.219,0.773,10.437,1.546,15.656,2.319
								c1.031-4.564,1.736-9.219,2.106-13.905c4.607-0.557,10.055-1.778,11.862-6.561c0.569-1.507,0.671-3.173,0.765-4.802
								c0.39-6.738,0.78-13.476,1.17-20.213c0.135-2.33,0.262-4.732-0.414-6.937c-1.185-3.868-4.571-6.314-7.931-7.918
								c-8.575-4.092-18.791-4.482-27.137,0.262c-2.221,1.263-4.341,2.925-5.702,5.262c-2.098,3.602-2.089,8.186-2.009,12.475
								c0.074,3.958,0.148,7.916,0.223,11.874c0.085,4.552,0.491,9.809,3.833,12.385c1.775,1.368,4.139,1.726,5.641,3.455
								C398.443,338.794,396.905,343.892,397.732,348.049z"/>
						</g>
					</g>
					<g>
						<path style="fill:#3B455A;" d="M429.865,322.496c-0.011-1.254-0.362-4.944-2.327-2.739c-0.514,0.577-0.676,1.421-0.747,2.221
							c-0.07,0.8-0.076,1.627-0.363,2.368c-0.658,1.702-2.582,2.392-4.26,2.273c-0.667-0.047-1.342-0.194-1.915-0.567
							c-0.556-0.362-0.985-0.913-1.402-1.454c-1.014-1.314-2.028-2.628-3.042-3.942c-1.743-2.259-5.464-1.516-7.977-1.316
							c-2.896,0.231-5.819,0.963-8.266,2.765c-0.247,0.182-0.489,0.374-0.731,0.565c-0.592,0.467-1.186,0.93-1.861,1.221
							c-2.277,0.984-4.97-0.308-6.423-2.447c-0.666-0.98-1.27-2.229-2.37-2.445c-0.861-0.169-1.737,0.419-2.224,1.221
							c-0.487,0.802-0.656,1.78-0.765,2.733c-0.395,3.47-0.105,7.085,1.222,10.251c2.879,6.865,9.058,8.013,15.318,8.19
							c2.475,0.07,4.949,0.14,7.424,0.21c4.524,0.128,9.31,0.188,13.251-2.284c3.477-2.18,5.676-6.082,6.706-10.235
							C429.644,326.941,429.884,324.712,429.865,322.496z M412.853,331.121c-2.462,1.503-5.089,1.453-7.7,0.502
							c-1.11-0.404-0.534-2.303,0.577-1.898c2.164,0.788,4.239,0.879,6.289-0.372C413.051,328.724,413.878,330.496,412.853,331.121z
							"/>
					</g>
					<g>
						<path style="fill:#3B455A;" d="M432.658,286.022c0.519-1.611,0.926-3.259,1.217-4.928c-1.557,0.466-3.23,0.523-4.814,0.167
							c0.045-0.969,0.091-1.939,0.136-2.908c0.034-0.806-10.661-1.933-11.529-2.051c-8.123-1.108-15.55-2.146-23.151,1.92
							c-6.493,3.473-10.82,8.94-12.161,16.282c-1.281,7.014,0.524,16.356,4.243,22.428c0.072-1.881-0.767-6.372-0.241-8.136
							c0.358-1.777,1.054-3.471,1.974-5.021c1.837-3.095,4.569-5.637,7.664-7.392c4.935-2.797,10.576-4.117,16.167-4.612
							c5.123-0.454,11.355-0.794,16.311,0.839c2.382,0.785,2.752,1.422,4.34-0.98c0.28-0.424,2.584-5.421,2.384-5.435
							C434.352,286.137,433.505,286.079,432.658,286.022z"/>
					</g>
				</g>
			</g>
		</g>
		<g>
			<path style="fill:#EBB044;" d="M300.824,189.692c-2.414,6.375-5.77,12.384-9.77,17.226c-5.573,6.745-12.628,12.207-20.512,15.991
				c-16.119,7.736-35.156,8.173-51.708,1.496c-4.226-1.705-8.25-4.202-11.889-6.923c-7.174-5.366-13.109-12.328-17.364-20.206
				c-8.398-15.546-10.015-34.395-3.767-50.987c6.404-17.008,20.284-30.513,37.452-36.471c8.335-2.892,17.273-3.973,26.057-3.121
				c22.859,2.217,42.73,17.117,51.258,38.462c3.198,8.004,4.7,16.666,4.354,25.28C304.683,176.695,303.216,183.373,300.824,189.692z
				"/>
			<path style="fill:#EBB044;" d="M248.504,102.788c5.24,1.263,19.447,5.078,31.84,11.929c0.838,0.464,1.861-0.17,1.834-1.127
				l-1.286-45.249c-0.032-1.113-1.397-1.627-2.154-0.811l-30.849,33.205C247.242,101.43,247.58,102.565,248.504,102.788z"/>
			<path style="fill:#EBB044;" d="M285.654,118.491c3.67,3.947,13.405,14.976,19.952,27.533c0.443,0.849,1.646,0.887,2.152,0.074
				l23.924-38.429c0.588-0.945-0.266-2.128-1.348-1.867l-44.057,10.637C285.352,116.662,285.006,117.795,285.654,118.491z"/>
			<path style="fill:#EBB044;" d="M308.105,153.286c0.497,5.367,1.474,20.045-1.007,33.987c-0.168,0.943,0.762,1.707,1.659,1.372
				l42.41-15.83c1.043-0.389,1.088-1.848,0.072-2.301l-41.388-18.473C308.982,151.653,308.017,152.339,308.105,153.286z"/>
			<path style="fill:#EBB044;" d="M303.728,193.888c-2.593,4.725-10.001,17.434-19.862,27.597c-0.667,0.688-0.324,1.841,0.607,2.066
				l44.003,10.627c1.082,0.261,1.936-0.921,1.348-1.866l-23.951-38.478C305.369,193.027,304.185,193.055,303.728,193.888z"/>
			<path style="fill:#EBB044;" d="M274.5,225.797c-5.065,1.842-19.015,6.512-33.13,7.649c-0.955,0.077-1.458,1.17-0.906,1.953
				l26.072,37.005c0.641,0.91,2.063,0.584,2.244-0.514l7.367-44.721C276.302,226.232,275.393,225.472,274.5,225.797z"/>
			<path style="fill:#EBB044;" d="M240.91,101.81c-5.245,1.243-19.467,5.003-31.887,11.805c-0.84,0.46-1.861-0.177-1.83-1.135
				l1.461-45.244c0.036-1.112,1.403-1.621,2.158-0.803l30.72,33.324C242.177,100.457,241.835,101.591,240.91,101.81z"/>
			<path style="fill:#EBB044;" d="M202.749,116.946c-3.841,3.781-14.054,14.369-21.149,26.624c-0.48,0.829-1.683,0.813-2.153-0.022
				l-22.203-39.449c-0.546-0.97,0.36-2.114,1.429-1.805l43.544,12.574C203.131,115.132,203.427,116.279,202.749,116.946z"/>
			<path style="fill:#EBB044;" d="M178.858,149.904c-0.649,5.351-2.042,19.995,0.042,34.002c0.141,0.947-0.81,1.684-1.698,1.324
				l-41.943-17.027c-1.031-0.419-1.036-1.878-0.007-2.302l41.896-17.291C178.027,148.247,178.973,148.96,178.858,149.904z"/>
			<path style="fill:#EBB044;" d="M180.821,190.523c2.592,4.726,9.997,17.436,19.857,27.601c0.667,0.688,0.324,1.841-0.607,2.065
				l-44.005,10.619c-1.082,0.261-1.936-0.922-1.348-1.867l23.959-38.473C179.18,189.662,180.364,189.69,180.821,190.523z"/>
			<path style="fill:#EBB044;" d="M236.665,233.499c-5.243-1.248-19.461-5.024-31.874-11.84c-0.84-0.461-1.861,0.175-1.831,1.133
				l1.412,45.246c0.035,1.113,1.402,1.623,2.157,0.805l30.756-33.291C237.931,234.854,237.59,233.719,236.665,233.499z"/>
		</g>
		<g>
			
				<rect x="819.203" y="432.59" transform="matrix(0.9887 -0.1498 0.1498 0.9887 -64.0722 143.9525)" style="fill:#CCD2D9;" width="208.24" height="129.22"/>
			
				<rect x="811.131" y="433.198" transform="matrix(0.9887 -0.1498 0.1498 0.9887 -56.1826 142.1422)" style="fill:#7FC5A3;" width="208.24" height="21.47"/>
			<path style="fill:#CCD2D9;" d="M857.47,429.053l-20.582,3.119c-3.454,0.523-5.829,3.747-5.306,7.201l0.867,5.718l33.089-5.014
				l-0.867-5.718C864.148,430.905,860.924,428.53,857.47,429.053z"/>
			<path style="fill:#CCD2D9;" d="M985.003,409.727l-20.582,3.119c-3.454,0.523-5.829,3.747-5.306,7.201l0.867,5.719l33.089-5.014
				l-0.867-5.718C991.68,411.579,988.456,409.204,985.003,409.727z"/>
			
				<rect x="967.132" y="492.656" transform="matrix(0.9887 -0.1498 0.1498 0.9887 -63.4298 153.6228)" style="fill:#7FC5A3;" width="41.369" height="10.226"/>
			<g>
				
					<rect x="839.6" y="511.982" transform="matrix(0.9887 -0.1498 0.1498 0.9887 -67.7649 134.7326)" style="fill:#7FC5A3;" width="41.369" height="10.226"/>
				
					<rect x="839.6" y="511.982" transform="matrix(0.1498 0.9887 -0.9887 0.1498 1242.6451 -410.9555)" style="fill:#7FC5A3;" width="41.369" height="10.226"/>
			</g>
			<path style="opacity:0.1;fill:#1E1D1D;" d="M830.059,576.681l205.889-31.2l-16.144-106.534
				C1019.804,438.947,1000.101,550.913,830.059,576.681z"/>
		</g>
		<g>
			<polygon style="fill:#CCD2D9;" points="440.523,480.61 481.099,490.391 542.854,206.971 521.763,201.887 			"/>
			<g>
				<g>
					<path style="fill:#CCD2D9;" d="M592.958,23.265l0.048-0.146c0.002,0.027,0.003,0.055,0.006,0.082
						c0.018-0.021,0.036-0.043,0.054-0.064l-0.048,0.146c6.531,80.221-50.842,180.902-50.842,180.902l-7.804-2.402l-0.059-0.018
						l-7.804-2.402C526.509,199.364,539.755,85.103,592.958,23.265z"/>
					<path style="opacity:0.1;fill:#1E1D1D;" d="M592.876,23.363l-58.609,178.388l-7.758-2.388
						C526.509,199.364,539.742,85.223,592.876,23.363z"/>
				</g>
				<g>
					<path style="fill:#CCD2D9;" d="M663.034,339.698l0.105,0.113c-0.025-0.011-0.05-0.024-0.076-0.036
						c0.01,0.025,0.02,0.051,0.03,0.077l-0.105-0.113C588.494,305.551,528.113,207.23,528.113,207.23l6.073-5.406l0.046-0.041
						l6.073-5.406C540.304,196.377,635.022,264.128,663.034,339.698z"/>
					<path style="opacity:0.1;fill:#1E1D1D;" d="M662.989,339.581L534.267,201.752l6.037-5.375
						C540.304,196.377,634.922,264.058,662.989,339.581z"/>
				</g>
				<g>
					<path style="fill:#CCD2D9;" d="M346.809,242.291l-0.153,0.033c0.023-0.016,0.047-0.031,0.07-0.046
						c-0.028-0.005-0.056-0.008-0.083-0.013l0.153-0.033c67.964-46.032,185.717-48.393,185.717-48.393l1.731,7.808l0.013,0.059
						l1.731,7.808C535.988,209.514,428.024,256.024,346.809,242.291z"/>
					<path style="opacity:0.1;fill:#1E1D1D;" d="M346.936,242.311l187.331-40.56l1.721,7.763
						C535.988,209.514,428.137,255.975,346.936,242.311z"/>
				</g>
				
					<ellipse transform="matrix(0.9933 -0.116 0.116 0.9933 -19.7925 63.3212)" style="fill:#A2A2A3;" cx="534.342" cy="201.775" rx="18.805" ry="18.338"/>
			</g>
		</g>
		<g>
			<path id="XMLID_96_" style="fill:#9B9B9B;" d="M691.892,720.772l0.369,18.632c0.12,6.052-4.568,11.053-10.472,11.17
				l-47.743,0.946c-5.903,0.117-10.786-4.695-10.906-10.747l-0.369-18.632L691.892,720.772z"/>
			<path style="fill:#EBB044;" d="M536.607,473.573c-1.299-65.55,49.48-119.715,113.417-120.981
				c63.937-1.267,116.821,50.845,118.12,116.394c0.461,23.294-5.659,45.146-16.604,63.702l0.005,0
				C720.427,588.666,713.9,635.165,713.9,635.165l-58.256,1.154l-58.256,1.154c0,0-8.363-46.204-41.674-100.905l0.005,0
				C544.049,518.46,537.068,496.867,536.607,473.573z"/>
			<path style="fill:#CCD2D9;" d="M715.242,635.138l1.568,79.151c0.066,3.307-2.434,6.038-5.583,6.1l-107.791,2.136
				c-3.149,0.062-5.755-2.568-5.82-5.874l-1.568-79.151L715.242,635.138z"/>
			<path style="opacity:0.1;fill:#1E1D1D;" d="M538.223,451.311c30.572,58.356,89.484,148.274,175.726,183.532
				c-0.029,0.192-0.048,0.322-0.048,0.322l-58.255,1.154l-58.255,1.154c0,0-8.363-46.204-41.674-100.905l0.005,0
				c-11.671-18.107-18.653-39.7-19.114-62.994C536.456,465.975,537.034,458.539,538.223,451.311z"/>
			<g style="opacity:0.3;">
				<path style="opacity:0.3;fill:#1E1D1D;" d="M749.418,479.123c-1.134-57.227-47.303-102.722-103.122-101.616
					c-32.627,0.646-61.323,17.076-79.315,42.041c16.837-31.408,49.134-52.968,86.61-53.71
					c55.819-1.106,101.988,44.389,103.122,101.616c0.471,23.777-6.912,45.834-19.701,63.58
					C745.253,515.66,749.791,497.928,749.418,479.123z"/>
			</g>
			<g>
				<polygon style="fill:#F4F5F5;" points="678.156,635.873 689.171,483.669 669.959,500.716 652.36,473.361 635.611,500.512 
					616.083,484.974 633.133,636.765 627.154,636.883 608.551,471.256 634.079,491.57 652.251,462.113 671.191,491.549 
					696.177,469.377 684.136,635.754 				"/>
			</g>
			<g>
				<path style="fill:#EBEAEB;" d="M685.234,620.576l-1.099,15.179l-5.979,0.119l1.357-18.749
					C681.405,618.298,683.31,619.451,685.234,620.576z"/>
				<path style="fill:#EBEAEB;" d="M626.113,574.266l7.02,62.499l-5.979,0.118l-7.81-69.539
					C621.565,569.676,623.821,571.983,626.113,574.266z"/>
			</g>
			<g>
				
					<rect x="596.57" y="655.97" transform="matrix(0.9998 -0.0198 0.0198 0.9998 -13.0092 13.1274)" style="fill:#9B9B9B;" width="119.217" height="14.619"/>
				
					<rect x="597.188" y="687.186" transform="matrix(0.9998 -0.0198 0.0198 0.9998 -13.6279 13.1463)" style="fill:#9B9B9B;" width="119.217" height="14.619"/>
			</g>
			<g>
				<path style="opacity:0.1;fill:#1E1D1D;" d="M650.902,687.301l-53.847,1.067l-0.329-16.599l33.216-0.658
					C637.018,677.276,644.034,682.634,650.902,687.301z"/>
				<path style="opacity:0.1;fill:#1E1D1D;" d="M596.437,657.153l-0.389-19.653l1.875-0.037
					c5.619,7.033,11.288,13.458,16.964,19.325L596.437,657.153z"/>
				<path style="opacity:0.1;fill:#1E1D1D;" d="M711.227,720.389l-107.791,2.136c-3.149,0.062-5.755-2.568-5.82-5.875l-0.271-13.666
					l77.829-1.542c15.941,7.815,30.24,12.056,41.465,14.345C716.054,718.379,713.881,720.336,711.227,720.389z"/>
				<path style="opacity:0.1;fill:#1E1D1D;" d="M629.943,671.111l-33.216,0.658l-0.29-14.617l18.449-0.366
					C619.912,661.982,624.942,666.753,629.943,671.111z"/>
				<path style="opacity:0.1;fill:#1E1D1D;" d="M675.174,701.442l-77.829,1.542l-0.29-14.617l53.847-1.067
					C659.269,692.986,667.415,697.639,675.174,701.442z"/>
			</g>
			<path style="opacity:0.1;fill:#1E1D1D;" d="M622.995,733.458c13.706,13.005,39.537,16.509,48.066,17.329l-37.015,0.733
				c-5.904,0.117-10.786-4.694-10.906-10.747L622.995,733.458z"/>
		</g>
		<g id="XMLID_93_">
			<g id="XMLID_95_">
				<polygon style="fill:#EFBFA5;" points="463.609,410.585 471.279,408.649 474.675,402.6 476.339,402.687 476.348,404.732 
					480.622,400.538 485.509,400.159 489.79,405.145 490.144,411.866 484.795,415.496 477.067,416.025 466.691,419.13 				"/>
			</g>
			<g id="XMLID_94_">
				<polygon style="fill:#7FC5A3;" points="466.936,406.082 424.677,415.018 368.652,372.934 372.816,410.857 404.68,443.104 
					422.013,448.737 476.279,419.586 				"/>
			</g>
		</g>
		<g>
			<g>
				<polygon style="fill:#EFBFA5;" points="996.557,494.348 991.529,507.332 985.649,505.452 987.04,495.808 983.843,496.157 
					989.557,485.564 995.935,486.727 				"/>
			</g>
			<g>
				<path style="fill:#D34E4E;" d="M949.279,370.626c-0.5,0.994-0.87,2.127-1.081,3.396c-0.877,5.264,0.922,10.706,3.849,15.268
					c4.635,7.224,11.694,13.111,17.157,19.789c6.249,7.639,12.497,15.278,18.746,22.917l-1.585,56.519l12.772,1.685l15.628-67.863
					c-8.813-9.757-17.465-19.259-25.573-29.469c-7.268-9.152-13.115-20.429-24.198-25.909
					C958.738,363.865,952.029,365.162,949.279,370.626z"/>
			</g>
		</g>
		<g>
			<g>
				<g>
					<polygon style="fill:#474EBB;" points="738.682,384.97 725.492,450.996 690.345,493.992 699.864,503.847 750.144,459.956 
						765.383,419.13 					"/>
				</g>
			</g>
			<g>
				<polygon style="fill:#AA6755;" points="694.632,494.589 701.14,500.751 692.212,512.687 683.005,511.028 680.059,503.533 
					686.793,501.283 685.573,500.127 683.182,500.216 683.133,497.817 				"/>
			</g>
		</g>
		<g>
			<g>
				<g>
					<polygon style="fill:#3B455A;" points="274.992,749.078 188.098,749.078 197.245,721.638 265.845,721.638 					"/>
					<rect x="222.398" y="643.89" style="fill:#3B455A;" width="18.294" height="91.468"/>
				</g>
				<polygon style="opacity:0.12;" points="222.398,657.61 240.692,689.624 240.692,648.463 222.398,653.036 				"/>
			</g>
			<g>
				<polygon style="fill:#474EBB;" points="378.656,653.036 89.007,653.036 104.252,488.393 363.412,488.393 				"/>
				<path style="fill:#D1D1D1;" d="M294.824,650.725c-3.43-42.677-6.86-85.353-10.29-128.03c-0.974-12.112-2.46-22.19-3.434-34.302
					c-0.259-3.217-4.835-3.257-4.574,0c3.433,42.709,6.875,83.168,10.308,125.877l2.912,36.238
					C290.006,653.725,295.086,653.982,294.824,650.725z"/>
				<path style="fill:#D1D1D1;" d="M171.339,653.036c3.43-42.677,6.87-83.102,10.3-125.779c0.973-12.112,1.947-24.223,2.92-36.335
					c0.258-3.217,5.339-3.474,5.077-0.217c-3.432,42.709-6.865,85.418-10.298,128.128l-3.426,34.204
					C175.654,656.254,171.077,656.294,171.339,653.036z"/>
			</g>
			<path style="fill:#D1D1D1;" d="M381.705,653.036c-1.72-18.578-3.44-37.155-5.16-55.733c-2.738-29.57-5.476-59.14-8.214-88.711
				c-0.623-6.733-1.247-13.466-1.87-20.199c-0.152-1.642-1.274-3.049-3.049-3.049c-8.608,0-17.216,0-25.825,0
				c-20.666,0-41.332,0-61.998,0c-24.905,0-49.811,0-74.716,0c-21.538,0-43.076,0-64.615,0c-10.493,0-21.072-0.395-31.559,0
				c-0.149,0.005-0.299,0-0.448,0c-1.76,0-2.897,1.404-3.049,3.049c-1.72,18.578-3.44,37.155-5.16,55.733
				c-2.738,29.57-5.476,59.14-8.214,88.711c-0.623,6.733-1.247,13.466-1.87,20.199c-0.152,1.643,1.52,3.049,3.049,3.049
				c9.611,0,19.223,0,28.834,0c23.078,0,46.157,0,69.235,0c27.912,0,55.824,0,83.737,0c24.112,0,48.225,0,72.337,0
				c11.643,0,23.376,0.424,35.014,0c0.164-0.006,0.328,0,0.492,0c0.535,0,0.995-0.116,1.384-0.312
				C381.073,655.408,381.841,654.498,381.705,653.036z M130.076,491.442c20.666,0,41.332,0,61.999,0c24.905,0,49.811,0,74.716,0
				c21.538,0,43.076,0,64.615,0c7.149,0,14.298,0,21.447,0c2.521,0,5.215,0.236,7.808,0.163c1.595,17.223,3.189,34.446,4.784,51.669
				H102.219c1.07-11.561,2.141-23.121,3.211-34.682c0.529-5.717,1.059-11.434,1.588-17.15
				C114.704,491.442,122.39,491.442,130.076,491.442z M101.796,547.848h264.072c1.694,18.294,3.388,36.587,5.082,54.881H96.714
				c0.167-1.809,0.335-3.617,0.502-5.426C98.743,580.818,100.269,564.333,101.796,547.848z M349.822,649.987
				c-23.078,0-46.157,0-69.236,0c-27.912,0-55.824,0-83.737,0c-24.112,0-48.225,0-72.337,0c-7.897,0-15.795,0-23.692,0
				c-2.732,0-5.647-0.25-8.465-0.191c1.312-14.165,2.623-28.329,3.935-42.494h275.082c0.788,8.512,1.576,17.023,2.364,25.535
				c0.529,5.717,1.059,11.434,1.588,17.15C366.824,649.987,358.323,649.987,349.822,649.987z"/>
		</g>
		<g>
			<g>
				<path style="fill:#AA6755;" d="M147.71,497.859c2.885,3.698,5.767,7.396,8.623,11.115c1.558-1.067,3.116-2.133,4.675-3.2
					c-1.415-2.938-2.827-5.878-4.24-8.817c0.975-0.143,1.953-0.278,2.928-0.422c-2.9-2.895-5.856-5.722-8.799-8.574
					c-1.778,0.845-3.537,1.736-5.349,2.52C146.279,492.934,147.092,495.386,147.71,497.859z"/>
			</g>
			<g>
				<path style="fill:#CCD2D9;" d="M171.107,382.357c0.616,1.022,0.896,2.26,1.028,3.498c0.547,5.132-0.922,10.023-3.764,13.969
					c-4.5,6.246-10.752,10.543-15.46,16.38c-5.386,6.677-9.723,13.773-14.167,21.056c3.757,18.096,8.728,35.372,16.108,52.696
					c-3.665,1.512-7.304,3.075-10.984,4.555c-13.38-20.906-22.696-42.386-31.876-64.977c6.724-10.112,13.308-19.971,20.852-29.593
					c6.763-8.626,13.022-18.161,23.571-22.683C162.372,374.703,167.722,376.738,171.107,382.357z"/>
			</g>
		</g>
	</g>
</g>
</svg>
