<?xml version="1.0" encoding="utf-8"?>
<!-- Generator: Adobe Illustrator 27.5.0, SVG Export Plug-In . SVG Version: 6.00 Build 0)  -->
<svg version="1.1" xmlns="http://www.w3.org/2000/svg" xmlns:xlink="http://www.w3.org/1999/xlink" x="0px" y="0px"
	 viewBox="0 0 3710 3710" style="enable-background:new 0 0 3710 3710;" xml:space="preserve">
<g id="Background">
	<g>
		<g>
			<rect style="fill:#FFFFFF;" width="3710" height="3710"/>
		</g>
	</g>
</g>
<g id="Illustration">
	<g>
		<linearGradient id="SVGID_1_" gradientUnits="userSpaceOnUse" x1="3578.8396" y1="4026.5459" x2="1125.0598" y2="979.1052">
			<stop  offset="0" style="stop-color:#B37CFF"/>
			<stop  offset="1" style="stop-color:#F895E7"/>
		</linearGradient>
		<path style="opacity:0.3;fill:url(#SVGID_1_);" d="M2903.789,2824.745c-56.362,59.336-109.692,97.601-151.827,127.833
			c-495.284,355.372-1081.337,251.783-1205.89,226.485c-183.925-37.356-539.449-109.565-796.486-411.836
			c-388.876-457.31-328.322-1177.789-26.684-1653.387c55.174-86.995,346.621-569.838,938.986-647.27
			c358.493-46.861,776.38,47.652,1079.003,301.19C3376.125,1299.959,3330.903,2375.094,2903.789,2824.745z"/>
		<g>
			<g>
				
					<linearGradient id="SVGID_00000115488870881174187820000013024068798664943763_" gradientUnits="userSpaceOnUse" x1="2060.3042" y1="955.9395" x2="2087.4519" y2="955.9395">
					<stop  offset="0" style="stop-color:#2B3582"/>
					<stop  offset="1" style="stop-color:#150E42"/>
				</linearGradient>
				<path style="fill:url(#SVGID_00000115488870881174187820000013024068798664943763_);" d="M2073.878,1013.628
					c-7.496,0-13.574-6.078-13.574-13.574v-88.23c0-7.496,6.078-13.574,13.574-13.574s13.574,6.078,13.574,13.574v88.23
					C2087.452,1007.55,2081.374,1013.628,2073.878,1013.628z"/>
				<g>
					
						<linearGradient id="SVGID_00000153693692093363956280000001432195531386858889_" gradientUnits="userSpaceOnUse" x1="2029.7631" y1="949.1526" x2="2117.9929" y2="949.1526">
						<stop  offset="0" style="stop-color:#2B3582"/>
						<stop  offset="1" style="stop-color:#150E42"/>
					</linearGradient>
					<path style="fill:url(#SVGID_00000153693692093363956280000001432195531386858889_);" d="M2117.993,949.153
						c0,5.622-4.558,10.18-10.18,10.18h-67.869c-5.622,0-10.18-4.558-10.18-10.18l0,0c0-5.622,4.558-10.18,10.18-10.18h67.869
						C2113.435,938.972,2117.993,943.53,2117.993,949.153L2117.993,949.153z"/>
					
						<linearGradient id="SVGID_00000077305877132721659700000017904839591501250713_" gradientUnits="userSpaceOnUse" x1="2029.7631" y1="1000.0544" x2="2117.9929" y2="1000.0544">
						<stop  offset="0" style="stop-color:#2B3582"/>
						<stop  offset="1" style="stop-color:#150E42"/>
					</linearGradient>
					<path style="fill:url(#SVGID_00000077305877132721659700000017904839591501250713_);" d="M2117.993,1000.055
						c0,5.622-4.558,10.18-10.18,10.18h-67.869c-5.622,0-10.18-4.558-10.18-10.18l0,0c0-5.622,4.558-10.18,10.18-10.18h67.869
						C2113.435,989.874,2117.993,994.432,2117.993,1000.055L2117.993,1000.055z"/>
				</g>
			</g>
			<g>
				
					<linearGradient id="SVGID_00000020374011139210766270000003912900634860006026_" gradientUnits="userSpaceOnUse" x1="3200.5061" y1="955.9395" x2="3227.6538" y2="955.9395">
					<stop  offset="0" style="stop-color:#2B3582"/>
					<stop  offset="1" style="stop-color:#150E42"/>
				</linearGradient>
				<path style="fill:url(#SVGID_00000020374011139210766270000003912900634860006026_);" d="M3214.08,1013.628
					c-7.496,0-13.574-6.078-13.574-13.574v-88.23c0-7.496,6.078-13.574,13.574-13.574s13.574,6.078,13.574,13.574v88.23
					C3227.654,1007.55,3221.576,1013.628,3214.08,1013.628z"/>
				<g>
					
						<linearGradient id="SVGID_00000124879945589929315820000011624852470964815233_" gradientUnits="userSpaceOnUse" x1="3173.3586" y1="949.1526" x2="3261.5884" y2="949.1526">
						<stop  offset="0" style="stop-color:#2B3582"/>
						<stop  offset="1" style="stop-color:#150E42"/>
					</linearGradient>
					<path style="fill:url(#SVGID_00000124879945589929315820000011624852470964815233_);" d="M3261.588,949.153
						c0,5.622-4.558,10.18-10.18,10.18h-67.869c-5.622,0-10.18-4.558-10.18-10.18l0,0c0-5.622,4.558-10.18,10.18-10.18h67.869
						C3257.031,938.972,3261.588,943.53,3261.588,949.153L3261.588,949.153z"/>
					
						<linearGradient id="SVGID_00000065061519674061680200000010996326430217123481_" gradientUnits="userSpaceOnUse" x1="3173.3586" y1="1000.0544" x2="3261.5884" y2="1000.0544">
						<stop  offset="0" style="stop-color:#2B3582"/>
						<stop  offset="1" style="stop-color:#150E42"/>
					</linearGradient>
					<path style="fill:url(#SVGID_00000065061519674061680200000010996326430217123481_);" d="M3261.588,1000.055
						c0,5.622-4.558,10.18-10.18,10.18h-67.869c-5.622,0-10.18-4.558-10.18-10.18l0,0c0-5.622,4.558-10.18,10.18-10.18h67.869
						C3257.031,989.874,3261.588,994.432,3261.588,1000.055L3261.588,1000.055z"/>
				</g>
			</g>
			<g>
				
					<linearGradient id="SVGID_00000078005890188765578430000013391844864957723327_" gradientUnits="userSpaceOnUse" x1="3186.9324" y1="1386.9087" x2="3214.0801" y2="1386.9087">
					<stop  offset="0" style="stop-color:#2B3582"/>
					<stop  offset="1" style="stop-color:#150E42"/>
				</linearGradient>
				<path style="fill:url(#SVGID_00000078005890188765578430000013391844864957723327_);" d="M3200.506,1444.598
					c-7.496,0-13.574-6.078-13.574-13.574v-88.23c0-7.496,6.078-13.574,13.574-13.574s13.574,6.078,13.574,13.574v88.23
					C3214.08,1438.52,3208.002,1444.598,3200.506,1444.598z"/>
				<g>
					
						<linearGradient id="SVGID_00000057115349269614576720000008280418448183553430_" gradientUnits="userSpaceOnUse" x1="3159.7847" y1="1380.1218" x2="3248.0146" y2="1380.1218">
						<stop  offset="0" style="stop-color:#2B3582"/>
						<stop  offset="1" style="stop-color:#150E42"/>
					</linearGradient>
					<path style="fill:url(#SVGID_00000057115349269614576720000008280418448183553430_);" d="M3248.015,1380.122
						c0,5.622-4.558,10.18-10.18,10.18h-67.869c-5.623,0-10.18-4.558-10.18-10.18l0,0c0-5.623,4.558-10.18,10.18-10.18h67.869
						C3243.457,1369.941,3248.015,1374.499,3248.015,1380.122L3248.015,1380.122z"/>
					
						<linearGradient id="SVGID_00000041266012737270001320000015447932833510192809_" gradientUnits="userSpaceOnUse" x1="3159.7847" y1="1431.0237" x2="3248.0146" y2="1431.0237">
						<stop  offset="0" style="stop-color:#2B3582"/>
						<stop  offset="1" style="stop-color:#150E42"/>
					</linearGradient>
					<path style="fill:url(#SVGID_00000041266012737270001320000015447932833510192809_);" d="M3248.015,1431.024
						c0,5.622-4.558,10.18-10.18,10.18h-67.869c-5.623,0-10.18-4.558-10.18-10.18l0,0c0-5.622,4.558-10.18,10.18-10.18h67.869
						C3243.457,1420.843,3248.015,1425.401,3248.015,1431.024L3248.015,1431.024z"/>
				</g>
			</g>
			<g>
				
					<linearGradient id="SVGID_00000183218238332083774870000009300034850789640094_" gradientUnits="userSpaceOnUse" x1="2060.3042" y1="1386.9087" x2="2087.4519" y2="1386.9087">
					<stop  offset="0" style="stop-color:#2B3582"/>
					<stop  offset="1" style="stop-color:#150E42"/>
				</linearGradient>
				<path style="fill:url(#SVGID_00000183218238332083774870000009300034850789640094_);" d="M2073.878,1444.598
					c-7.496,0-13.574-6.078-13.574-13.574v-88.23c0-7.496,6.078-13.574,13.574-13.574s13.574,6.078,13.574,13.574v88.23
					C2087.452,1438.52,2081.374,1444.598,2073.878,1444.598z"/>
				<g>
					
						<linearGradient id="SVGID_00000020400414604392137060000009424210652355859892_" gradientUnits="userSpaceOnUse" x1="2029.7631" y1="1380.1218" x2="2117.9929" y2="1380.1218">
						<stop  offset="0" style="stop-color:#2B3582"/>
						<stop  offset="1" style="stop-color:#150E42"/>
					</linearGradient>
					<path style="fill:url(#SVGID_00000020400414604392137060000009424210652355859892_);" d="M2117.993,1380.122
						c0,5.622-4.558,10.18-10.18,10.18h-67.869c-5.622,0-10.18-4.558-10.18-10.18l0,0c0-5.623,4.558-10.18,10.18-10.18h67.869
						C2113.435,1369.941,2117.993,1374.499,2117.993,1380.122L2117.993,1380.122z"/>
					
						<linearGradient id="SVGID_00000085212891769164065660000004690509776364691860_" gradientUnits="userSpaceOnUse" x1="2029.7631" y1="1431.0237" x2="2117.9929" y2="1431.0237">
						<stop  offset="0" style="stop-color:#2B3582"/>
						<stop  offset="1" style="stop-color:#150E42"/>
					</linearGradient>
					<path style="fill:url(#SVGID_00000085212891769164065660000004690509776364691860_);" d="M2117.993,1431.024
						c0,5.622-4.558,10.18-10.18,10.18h-67.869c-5.622,0-10.18-4.558-10.18-10.18l0,0c0-5.622,4.558-10.18,10.18-10.18h67.869
						C2113.435,1420.843,2117.993,1425.401,2117.993,1431.024L2117.993,1431.024z"/>
				</g>
			</g>
			<g>
				
					<linearGradient id="SVGID_00000150784674384255466460000001084499602060093577_" gradientUnits="userSpaceOnUse" x1="2257.3752" y1="1436.3558" x2="3039.8042" y2="1436.3558">
					<stop  offset="0" style="stop-color:#2B3582"/>
					<stop  offset="1" style="stop-color:#150E42"/>
				</linearGradient>
				<path style="fill:url(#SVGID_00000150784674384255466460000001084499602060093577_);" d="M3026.212,2308.965
					c-6.602,0-12.389-4.822-13.405-11.547L2755.113,592.25l-224.17,24.826L2284.38,2297.36c-1.087,7.415-7.97,12.552-15.4,11.459
					c-7.418-1.088-12.548-7.983-11.46-15.4l248.084-1690.651c0.896-6.108,5.799-10.841,11.935-11.521l247.55-27.416
					c7.233-0.809,13.827,4.255,14.916,11.463l259.644,1718.067c1.12,7.412-3.98,14.33-11.393,15.449
					C3027.569,2308.915,3026.886,2308.965,3026.212,2308.965z"/>
				
					<linearGradient id="SVGID_00000075863517912891113740000008473825617232364699_" gradientUnits="userSpaceOnUse" x1="2053.0955" y1="781.2825" x2="3246.5613" y2="781.2825">
					<stop  offset="0" style="stop-color:#2B3582"/>
					<stop  offset="1" style="stop-color:#150E42"/>
				</linearGradient>
				<path style="fill:url(#SVGID_00000075863517912891113740000008473825617232364699_);" d="M3232.986,928.792H2066.67
					c-6.192,0-11.601-4.19-13.145-10.187c-1.544-5.997,1.165-12.28,6.586-15.271l443.183-244.566
					c6.568-3.624,14.822-1.239,18.442,5.326c3.622,6.563,1.238,14.82-5.326,18.442l-397.049,219.108h1063.73l-412.867-242.593
					c-6.464-3.798-8.625-12.116-4.827-18.58s12.112-8.623,18.58-4.827l455.885,267.87c5.281,3.102,7.829,9.357,6.222,15.266
					C3244.475,924.691,3239.11,928.792,3232.986,928.792z"/>
				
					<linearGradient id="SVGID_00000005260595961031418800000009168422906630452123_" gradientUnits="userSpaceOnUse" x1="2053.0959" y1="1129.4961" x2="3228.2822" y2="1129.4961">
					<stop  offset="0" style="stop-color:#2B3582"/>
					<stop  offset="1" style="stop-color:#150E42"/>
				</linearGradient>
				<path style="fill:url(#SVGID_00000005260595961031418800000009168422906630452123_);" d="M3214.708,1356.368H2066.67
					c-5.435,0-10.346-3.241-12.482-8.238c-2.136-4.997-1.085-10.787,2.671-14.715l407.457-426.179
					c5.178-5.418,13.771-5.612,19.191-0.431c5.418,5.18,5.612,13.773,0.431,19.191l-385.51,403.225h1085.105l-375.797-403.775
					c-5.107-5.488-4.799-14.076,0.689-19.184c5.49-5.105,14.077-4.797,19.184,0.689l397.036,426.596
					c3.68,3.954,4.664,9.713,2.509,14.666C3224.998,1353.165,3220.11,1356.368,3214.708,1356.368z"/>
				
					<linearGradient id="SVGID_00000142145916266607642840000016432379690700052869_" gradientUnits="userSpaceOnUse" x1="2505.4604" y1="750.8118" x2="2828.4519" y2="750.8118">
					<stop  offset="0" style="stop-color:#2B3582"/>
					<stop  offset="1" style="stop-color:#150E42"/>
				</linearGradient>
				<path style="fill:url(#SVGID_00000142145916266607642840000016432379690700052869_);" d="M2814.878,910.459
					c-3.447,0-6.893-1.304-9.537-3.915l-295.844-292.147c-5.334-5.267-5.388-13.862-0.121-19.196
					c5.269-5.337,13.864-5.385,19.196-0.121l295.844,292.147c5.334,5.267,5.389,13.862,0.121,19.196
					C2821.881,909.112,2818.379,910.459,2814.878,910.459z"/>
				
					<linearGradient id="SVGID_00000033339572212560708320000005250919367968314752_" gradientUnits="userSpaceOnUse" x1="2462.5916" y1="737.1036" x2="2780.1582" y2="737.1036">
					<stop  offset="0" style="stop-color:#2B3582"/>
					<stop  offset="1" style="stop-color:#150E42"/>
				</linearGradient>
				<path style="fill:url(#SVGID_00000033339572212560708320000005250919367968314752_);" d="M2476.162,910.459
					c-3.258,0-6.525-1.165-9.126-3.529c-5.548-5.04-5.957-13.625-0.915-19.174l290.419-319.563
					c5.041-5.546,13.625-5.958,19.174-0.915c5.548,5.04,5.957,13.625,0.915,19.174L2486.21,906.015
					C2483.532,908.961,2479.854,910.459,2476.162,910.459z"/>
				
					<linearGradient id="SVGID_00000116212229544868856640000013293826428148071351_" gradientUnits="userSpaceOnUse" x1="2315.9417" y1="1397.3588" x2="2892.5413" y2="1397.3588">
					<stop  offset="0" style="stop-color:#2B3582"/>
					<stop  offset="1" style="stop-color:#150E42"/>
				</linearGradient>
				<path style="fill:url(#SVGID_00000116212229544868856640000013293826428148071351_);" d="M2329.518,1892.131
					c-3.538,0-7.072-1.374-9.733-4.109c-5.226-5.375-5.107-13.968,0.267-19.196l539.817-525.008l-398.953-418.288
					c-5.175-5.425-4.971-14.016,0.454-19.191c5.423-5.173,14.015-4.974,19.191,0.454l408.231,428.015
					c5.138,5.387,4.978,13.908-0.358,19.1l-549.452,534.382C2336.343,1890.854,2332.927,1892.131,2329.518,1892.131z"/>
				
					<linearGradient id="SVGID_00000155827349521790090130000015853021983830306704_" gradientUnits="userSpaceOnUse" x1="-1110.5298" y1="1394.3115" x2="-533.9302" y2="1394.3115" gradientTransform="matrix(-1 0 0 1 1861.2181 0)">
					<stop  offset="0" style="stop-color:#2B3582"/>
					<stop  offset="1" style="stop-color:#150E42"/>
				</linearGradient>
				<path style="fill:url(#SVGID_00000155827349521790090130000015853021983830306704_);" d="M2958.172,1889.084
					c-3.41,0-6.823-1.278-9.463-3.843l-549.452-534.382c-5.335-5.191-5.496-13.713-0.358-19.1l408.232-428.015
					c5.175-5.428,13.766-5.627,19.191-0.454c5.425,5.175,5.629,13.766,0.454,19.191l-398.955,418.289l539.817,525.008
					c5.374,5.228,5.493,13.821,0.267,19.196C2965.244,1887.711,2961.71,1889.084,2958.172,1889.084z"/>
			</g>
			
				<linearGradient id="SVGID_00000132810790479648280490000015447779335530157968_" gradientUnits="userSpaceOnUse" x1="2314.8137" y1="1895.9275" x2="2979.9314" y2="1895.9275">
				<stop  offset="0" style="stop-color:#2B3582"/>
				<stop  offset="1" style="stop-color:#150E42"/>
			</linearGradient>
			<path style="fill:url(#SVGID_00000132810790479648280490000015447779335530157968_);" d="M2966.358,1909.501h-637.97
				c-7.496,0-13.574-6.078-13.574-13.574s6.078-13.574,13.574-13.574h637.97c7.496,0,13.574,6.078,13.574,13.574
				S2973.854,1909.501,2966.358,1909.501z"/>
			
				<linearGradient id="SVGID_00000065790710133679213830000003793400074373977275_" gradientUnits="userSpaceOnUse" x1="2259.9399" y1="2087.5007" x2="2548.9424" y2="2087.5007">
				<stop  offset="0" style="stop-color:#2B3582"/>
				<stop  offset="1" style="stop-color:#150E42"/>
			</linearGradient>
			<path style="fill:url(#SVGID_00000065790710133679213830000003793400074373977275_);" d="M2273.504,2291.484
				c-2.651,0-5.329-0.776-7.678-2.391c-6.179-4.247-7.743-12.697-3.494-18.875l261.851-380.818
				c4.247-6.177,12.694-7.74,18.876-3.493c6.177,4.247,7.741,12.697,3.493,18.875L2284.7,2285.6
				C2282.069,2289.428,2277.822,2291.484,2273.504,2291.484z"/>
			
				<linearGradient id="SVGID_00000106866377564853794720000011101729219887413662_" gradientUnits="userSpaceOnUse" x1="-1455.3632" y1="2087.5007" x2="-1166.3608" y2="2087.5007" gradientTransform="matrix(-1 0 0 1 1584.0449 0)">
				<stop  offset="0" style="stop-color:#2B3582"/>
				<stop  offset="1" style="stop-color:#150E42"/>
			</linearGradient>
			<path style="fill:url(#SVGID_00000106866377564853794720000011101729219887413662_);" d="M3025.844,2291.484
				c-4.318,0-8.565-2.056-11.196-5.884l-261.852-380.818c-4.248-6.177-2.684-14.628,3.493-18.875
				c6.174-4.247,14.629-2.684,18.876,3.493l261.851,380.818c4.249,6.177,2.684,14.628-3.494,18.875
				C3031.175,2290.708,3028.495,2291.484,3025.844,2291.484z"/>
		</g>
		<g>
			<g>
				
					<linearGradient id="SVGID_00000134941063135163128470000001020619628475740571_" gradientUnits="userSpaceOnUse" x1="1696.0326" y1="1404.7469" x2="1642.8163" y2="2596.7686">
					<stop  offset="0" style="stop-color:#2B3582"/>
					<stop  offset="1" style="stop-color:#150E42"/>
				</linearGradient>
				<polygon style="fill:url(#SVGID_00000134941063135163128470000001020619628475740571_);" points="1651.483,1851.813 
					1670.73,966.12 1720.958,966.12 1720.958,1851.813 				"/>
			</g>
			<g>
				
					<linearGradient id="SVGID_00000096770345323592413820000003749319376532308371_" gradientUnits="userSpaceOnUse" x1="1039.3945" y1="-378.6685" x2="1120.911" y2="-362.041" gradientTransform="matrix(0.9584 0.2854 -0.2854 0.9584 686.708 782.0153)">
					<stop  offset="0" style="stop-color:#53D8FF"/>
					<stop  offset="1" style="stop-color:#3840F7"/>
				</linearGradient>
				<path style="fill:url(#SVGID_00000096770345323592413820000003749319376532308371_);" d="M1953.505,541.423
					c-9.938-48.886-173.712,233.79-228.097,303.328c-54.385,69.537-11.96,91.378-11.96,91.378l7.119,6.736
					c0.01,0.004,0.021,0.008,0.032,0.012c21.473,4.202,43.465-4.291,54.058-23.148
					C1824.926,830.233,1961.618,581.338,1953.505,541.423z"/>
				
					<linearGradient id="SVGID_00000082337002466112847520000004256662122125912744_" gradientUnits="userSpaceOnUse" x1="-6478.6821" y1="-408.9482" x2="-6397.231" y2="-392.334" gradientTransform="matrix(-0.7099 0.7043 -0.7043 -0.7099 -3009.7451 5445.2061)">
					<stop  offset="0" style="stop-color:#53D8FF"/>
					<stop  offset="1" style="stop-color:#3840F7"/>
				</linearGradient>
				<path style="fill:url(#SVGID_00000082337002466112847520000004256662122125912744_);" d="M1952.061,1398.157
					c47.666,14.716-121.881-264.535-156.83-345.601c-34.95-81.066-73.917-53.681-73.917-53.681l-8.785,3.644
					c-0.008,0.008-0.016,0.016-0.024,0.024c-15.357,15.234-17.614,39.574-6.145,57.911
					C1760.798,1147.478,1913.145,1386.14,1952.061,1398.157z"/>
				
					<linearGradient id="SVGID_00000155855240690857420100000011271456097945152404_" gradientUnits="userSpaceOnUse" x1="-4144.2007" y1="6018.8877" x2="-4062.8259" y2="6035.4863" gradientTransform="matrix(-0.0844 0.9964 0.9964 0.0844 -4919.061 4584.3594)">
					<stop  offset="0" style="stop-color:#53D8FF"/>
					<stop  offset="1" style="stop-color:#3840F7"/>
				</linearGradient>
				<path style="fill:url(#SVGID_00000155855240690857420100000011271456097945152404_);" d="M1208.022,1050.571
					c-41.88-27.106,281.082-76.333,365.678-101.566c84.596-25.233,87.667,22.226,87.667,22.226l1.903,9.076v0.035
					c0,21.553-18.101,38.907-39.524,41.882C1522.072,1036.337,1242.215,1072.7,1208.022,1050.571z"/>
				<g>
					
						<linearGradient id="SVGID_00000163794877700128186720000017444926265380198533_" gradientUnits="userSpaceOnUse" x1="816.962" y1="-385.4521" x2="916.5124" y2="-365.146" gradientTransform="matrix(0.9359 0.3523 -0.3523 0.9359 756.448 1015.2774)">
						<stop  offset="0" style="stop-color:#2B3582"/>
						<stop  offset="1" style="stop-color:#150E42"/>
					</linearGradient>
					<path style="fill:url(#SVGID_00000163794877700128186720000017444926265380198533_);" d="M1747.379,987.283
						c-9.884,26.252-39.177,39.521-65.43,29.637c-26.252-9.884-39.521-39.178-29.637-65.429
						c9.883-26.252,39.177-39.521,65.429-29.638C1743.993,931.736,1757.262,961.03,1747.379,987.283z"/>
					
						<linearGradient id="SVGID_00000069394116835592433270000003968543444596972427_" gradientUnits="userSpaceOnUse" x1="832.2531" y1="-382.1674" x2="901.6338" y2="-368.0153" gradientTransform="matrix(0.9359 0.3523 -0.3523 0.9359 756.448 1015.2774)">
						<stop  offset="0" style="stop-color:#B37CFF"/>
						<stop  offset="1" style="stop-color:#F895E7"/>
					</linearGradient>
					<path style="fill:url(#SVGID_00000069394116835592433270000003968543444596972427_);" d="M1699.98,1005.065
						c-4.212,0-8.429-0.76-12.489-2.29c-8.848-3.331-15.87-9.909-19.771-18.521c-3.902-8.613-4.215-18.23-0.883-27.078
						c6.876-18.265,27.332-27.535,45.6-20.654c18.266,6.876,27.532,27.333,20.654,45.6l0,0c-3.33,8.848-9.909,15.87-18.522,19.771
						C1709.906,1004.005,1704.949,1005.065,1699.98,1005.065z M1700,937.643c-12.949,0-25.163,7.914-29.988,20.729
						c-3.012,8-2.727,16.694,0.8,24.482c3.526,7.786,9.875,13.735,17.875,16.747c7.998,3.009,16.692,2.729,24.482-0.8
						c7.786-3.526,13.735-9.875,16.747-17.875l0,0c6.217-16.515-2.161-35.01-18.676-41.229
						C1707.54,938.304,1703.738,937.643,1700,937.643z"/>
				</g>
			</g>
		</g>
		<g>
			<g>
				
					<linearGradient id="SVGID_00000088106996886677713730000006873481413181703058_" gradientUnits="userSpaceOnUse" x1="898.8073" y1="1695.1338" x2="854.8209" y2="2680.4102">
					<stop  offset="0" style="stop-color:#2B3582"/>
					<stop  offset="1" style="stop-color:#150E42"/>
				</linearGradient>
				<polygon style="fill:url(#SVGID_00000088106996886677713730000006873481413181703058_);" points="861.574,2051.311 
					877.084,1332.613 920.102,1332.613 920.102,2067.254 				"/>
				
					<linearGradient id="SVGID_00000183221316297395910190000014023109804605845927_" gradientUnits="userSpaceOnUse" x1="907.0541" y1="1681.9224" x2="861.9033" y2="2693.2803">
					<stop  offset="0" style="stop-color:#2B3582"/>
					<stop  offset="1" style="stop-color:#150E42"/>
				</linearGradient>
				<path style="fill:url(#SVGID_00000183221316297395910190000014023109804605845927_);" d="M940.229,2065.6
					c0,11.36-5.385,20.361-12.029,20.361h-76.55c-6.644,0-12.029-9.001-12.029-20.361l0,0c0-11.36,5.385-20.361,12.029-20.361h76.55
					C934.844,2045.24,940.229,2054.24,940.229,2065.6L940.229,2065.6z"/>
			</g>
			<g>
				
					<linearGradient id="SVGID_00000032610013425801703560000004585358314731796151_" gradientUnits="userSpaceOnUse" x1="375.7231" y1="236.7721" x2="444.9904" y2="250.9011" gradientTransform="matrix(0.9584 0.2854 -0.2854 0.9584 686.708 782.0153)">
					<stop  offset="0" style="stop-color:#53D8FF"/>
					<stop  offset="1" style="stop-color:#3840F7"/>
				</linearGradient>
				<path style="fill:url(#SVGID_00000032610013425801703560000004585358314731796151_);" d="M1117.366,968.044
					c-8.445-41.54-147.609,198.659-193.821,257.748c-46.213,59.088-10.163,77.647-10.163,77.647l6.049,5.724
					c0.009,0.004,0.018,0.007,0.028,0.011c18.246,3.57,36.934-3.647,45.935-19.67
					C1008.109,1213.455,1124.26,1001.961,1117.366,968.044z"/>
				
					<linearGradient id="SVGID_00000054267588813863710280000013763438077695390600_" gradientUnits="userSpaceOnUse" x1="-5659.542" y1="-63.6287" x2="-5590.3301" y2="-49.5111" gradientTransform="matrix(-0.7099 0.7043 -0.7043 -0.7099 -3009.7451 5445.2061)">
					<stop  offset="0" style="stop-color:#53D8FF"/>
					<stop  offset="1" style="stop-color:#3840F7"/>
				</linearGradient>
				<path style="fill:url(#SVGID_00000054267588813863710280000013763438077695390600_);" d="M1116.139,1696.038
					c40.504,12.505-103.566-224.784-133.263-293.669c-29.698-68.885-62.81-45.614-62.81-45.614l-7.465,3.097
					c-0.007,0.007-0.014,0.013-0.021,0.02c-13.049,12.945-14.967,33.627-5.221,49.209
					C953.618,1483.028,1083.071,1685.827,1116.139,1696.038z"/>
				
					<linearGradient id="SVGID_00000064355189521073835800000003820422201961551807_" gradientUnits="userSpaceOnUse" x1="-3718.4941" y1="5295.9663" x2="-3649.2717" y2="5310.0864" gradientTransform="matrix(-0.0844 0.9964 0.9964 0.0844 -4919.061 4584.3594)">
					<stop  offset="0" style="stop-color:#53D8FF"/>
					<stop  offset="1" style="stop-color:#3840F7"/>
				</linearGradient>
				<path style="fill:url(#SVGID_00000064355189521073835800000003820422201961551807_);" d="M483.905,1400.683
					c-35.587-23.033,238.845-64.862,310.728-86.303c71.884-21.441,75.418,18.887,75.418,18.887l2.542,7.712c0,0,0,0.02,0,0.03
					c0,18.314-16.305,33.061-34.51,35.588C751.689,1388.588,512.961,1419.487,483.905,1400.683z"/>
				<g>
					
						<linearGradient id="SVGID_00000078746384744328946550000006659395462499356077_" gradientUnits="userSpaceOnUse" x1="205.231" y1="236.2893" x2="289.8219" y2="253.5439" gradientTransform="matrix(0.9359 0.3523 -0.3523 0.9359 756.448 1015.2774)">
						<stop  offset="0" style="stop-color:#2B3582"/>
						<stop  offset="1" style="stop-color:#150E42"/>
					</linearGradient>
					<path style="fill:url(#SVGID_00000078746384744328946550000006659395462499356077_);" d="M942.215,1346.905
						c-8.399,22.307-33.291,33.582-55.598,25.184c-22.307-8.398-33.582-33.29-25.183-55.597
						c8.398-22.307,33.29-33.583,55.597-25.185C939.338,1299.706,950.612,1324.598,942.215,1346.905z"/>
					
						<linearGradient id="SVGID_00000125589449220589112090000001706003627774756243_" gradientUnits="userSpaceOnUse" x1="217.9742" y1="239.0296" x2="277.4225" y2="251.1557" gradientTransform="matrix(0.9359 0.3523 -0.3523 0.9359 756.448 1015.2774)">
						<stop  offset="0" style="stop-color:#B37CFF"/>
						<stop  offset="1" style="stop-color:#F895E7"/>
					</linearGradient>
					<path style="fill:url(#SVGID_00000125589449220589112090000001706003627774756243_);" d="M901.891,1362.255
						c-3.544,0-7.147-0.626-10.654-1.947c-7.582-2.853-13.6-8.49-16.943-15.872c-3.344-7.38-3.612-15.62-0.757-23.202
						c5.892-15.652,23.419-23.592,39.076-17.7c15.653,5.894,23.593,23.423,17.7,39.076l0,0
						C925.739,1354.754,914.162,1362.255,901.891,1362.255z M901.955,1304.98c-10.899,0-21.181,6.663-25.244,17.449
						c-2.535,6.734-2.297,14.053,0.673,20.606c2.969,6.555,8.313,11.562,15.049,14.097c13.904,5.229,29.469-1.819,34.705-15.72l0,0
						c5.233-13.902-1.819-29.471-15.721-34.705C908.301,1305.537,905.102,1304.98,901.955,1304.98z"/>
				</g>
			</g>
		</g>
		<g>
			<g>
				
					<linearGradient id="SVGID_00000154426711795296912410000005823559622158824602_" gradientUnits="userSpaceOnUse" x1="1655.1838" y1="2509.2795" x2="1943.9052" y2="986.9311">
					<stop  offset="0" style="stop-color:#CB236D"/>
					<stop  offset="1" style="stop-color:#4C246D"/>
				</linearGradient>
				
					<rect x="472.166" y="1821.271" style="fill:url(#SVGID_00000154426711795296912410000005823559622158824602_);" width="2399.175" height="1201.284"/>
				<g>
					
						<linearGradient id="SVGID_00000091001468390978070380000008301622988295731847_" gradientUnits="userSpaceOnUse" x1="1625.1187" y1="1930.3613" x2="2022.1938" y2="830.7678">
						<stop  offset="0" style="stop-color:#CB236D"/>
						<stop  offset="1" style="stop-color:#4C246D"/>
					</linearGradient>
					<path style="fill:url(#SVGID_00000091001468390978070380000008301622988295731847_);" d="M2901.882,1769.695
						c0-5.25-3.667-9.506-8.19-9.506H456.602c-4.523,0-8.19,4.256-8.19,9.506v44.006c0,5.25,3.667,10.964,8.19,10.964h2437.09
						c4.523,0,8.19-5.714,8.19-10.964V1769.695z"/>
					
						<linearGradient id="SVGID_00000151538174815978770070000004218136785503612344_" gradientUnits="userSpaceOnUse" x1="147.2703" y1="3889.1292" x2="2634.085" y2="2522.856">
						<stop  offset="0" style="stop-color:#CB236D"/>
						<stop  offset="1" style="stop-color:#4C246D"/>
					</linearGradient>
					<path style="fill:url(#SVGID_00000151538174815978770070000004218136785503612344_);" d="M2901.882,3030.746
						c0-4.523-3.667-8.19-8.19-8.19H456.602c-4.523,0-8.19,3.667-8.19,8.19v37.915c0,4.523,3.667,8.19,8.19,8.19h2437.09
						c4.523,0,8.19-3.667,8.19-8.19V3030.746z"/>
				</g>
			</g>
			<g>
				<g>
					<path style="opacity:0.7;fill:#FFFFFF;" d="M892.955,1948.233c0-4.523-3.667-8.19-8.19-8.19H670.39
						c-4.523,0-8.19,3.667-8.19,8.19v960.936c0,4.523,3.667,8.19,8.19,8.19h214.375c4.523,0,8.19-3.667,8.19-8.19V1948.233z"/>
					<g>
						
							<linearGradient id="SVGID_00000070119294744400772270000017306806675614276539_" gradientUnits="userSpaceOnUse" x1="514.6974" y1="2560.696" x2="1817.9166" y2="-229.0057">
							<stop  offset="0" style="stop-color:#CB236D"/>
							<stop  offset="1" style="stop-color:#4C246D"/>
						</linearGradient>
						
							<rect x="682.56" y="1980.764" style="fill:url(#SVGID_00000070119294744400772270000017306806675614276539_);" width="193.427" height="27.148"/>
						
							<linearGradient id="SVGID_00000037661021228410024970000007739709778441474229_" gradientUnits="userSpaceOnUse" x1="540.7233" y1="2572.8535" x2="1843.9414" y2="-216.8457">
							<stop  offset="0" style="stop-color:#CB236D"/>
							<stop  offset="1" style="stop-color:#4C246D"/>
						</linearGradient>
						
							<rect x="682.56" y="2048.633" style="fill:url(#SVGID_00000037661021228410024970000007739709778441474229_);" width="193.427" height="27.148"/>
						
							<linearGradient id="SVGID_00000098937762183248440930000016147680367537135770_" gradientUnits="userSpaceOnUse" x1="570.6527" y1="2586.8354" x2="1873.8719" y2="-202.8662">
							<stop  offset="0" style="stop-color:#CB236D"/>
							<stop  offset="1" style="stop-color:#4C246D"/>
						</linearGradient>
						
							<rect x="682.56" y="2126.683" style="fill:url(#SVGID_00000098937762183248440930000016147680367537135770_);" width="193.427" height="27.148"/>
						
							<linearGradient id="SVGID_00000161603545796595429390000008419984408694876094_" gradientUnits="userSpaceOnUse" x1="595.377" y1="2598.3857" x2="1898.5962" y2="-191.3159">
							<stop  offset="0" style="stop-color:#CB236D"/>
							<stop  offset="1" style="stop-color:#4C246D"/>
						</linearGradient>
						
							<rect x="682.56" y="2191.158" style="fill:url(#SVGID_00000161603545796595429390000008419984408694876094_);" width="193.427" height="27.148"/>
						
							<linearGradient id="SVGID_00000150792060784317551260000006202506755685119911_" gradientUnits="userSpaceOnUse" x1="625.9575" y1="2612.6709" x2="1929.1792" y2="-177.0363">
							<stop  offset="0" style="stop-color:#CB236D"/>
							<stop  offset="1" style="stop-color:#4C246D"/>
						</linearGradient>
						
							<rect x="682.56" y="2269.208" style="fill:url(#SVGID_00000150792060784317551260000006202506755685119911_);" width="193.427" height="30.541"/>
						
							<linearGradient id="SVGID_00000064318382241210975070000001331890633573749914_" gradientUnits="userSpaceOnUse" x1="652.6337" y1="2625.1331" x2="1955.8529" y2="-164.5687">
							<stop  offset="0" style="stop-color:#CB236D"/>
							<stop  offset="1" style="stop-color:#4C246D"/>
						</linearGradient>
						
							<rect x="682.56" y="2340.47" style="fill:url(#SVGID_00000064318382241210975070000001331890633573749914_);" width="193.427" height="27.148"/>
						
							<linearGradient id="SVGID_00000157290547421871961270000016451154665541601711_" gradientUnits="userSpaceOnUse" x1="678.0086" y1="2636.9873" x2="1981.2296" y2="-152.7183">
							<stop  offset="0" style="stop-color:#CB236D"/>
							<stop  offset="1" style="stop-color:#4C246D"/>
						</linearGradient>
						
							<rect x="682.56" y="2408.34" style="fill:url(#SVGID_00000157290547421871961270000016451154665541601711_);" width="193.427" height="23.754"/>
						
							<linearGradient id="SVGID_00000181770460524751450160000012594532317449717684_" gradientUnits="userSpaceOnUse" x1="707.9382" y1="2650.9688" x2="2011.1592" y2="-138.7368">
							<stop  offset="0" style="stop-color:#CB236D"/>
							<stop  offset="1" style="stop-color:#4C246D"/>
						</linearGradient>
						
							<rect x="682.56" y="2486.389" style="fill:url(#SVGID_00000181770460524751450160000012594532317449717684_);" width="193.427" height="23.754"/>
						
							<linearGradient id="SVGID_00000151545402185260044470000013171222817342076849_" gradientUnits="userSpaceOnUse" x1="735.2653" y1="2663.7344" x2="2038.4871" y2="-125.9728">
							<stop  offset="0" style="stop-color:#CB236D"/>
							<stop  offset="1" style="stop-color:#4C246D"/>
						</linearGradient>
						
							<rect x="682.56" y="2554.258" style="fill:url(#SVGID_00000151545402185260044470000013171222817342076849_);" width="193.427" height="30.541"/>
						
							<linearGradient id="SVGID_00000013912213263336217190000013897874574944539032_" gradientUnits="userSpaceOnUse" x1="761.291" y1="2675.8923" x2="2064.512" y2="-113.8132">
							<stop  offset="0" style="stop-color:#CB236D"/>
							<stop  offset="1" style="stop-color:#4C246D"/>
						</linearGradient>
						
							<rect x="682.56" y="2625.521" style="fill:url(#SVGID_00000013912213263336217190000013897874574944539032_);" width="193.427" height="23.754"/>
						
							<linearGradient id="SVGID_00000031927526929670090490000003369771890674871469_" gradientUnits="userSpaceOnUse" x1="789.9193" y1="2689.2661" x2="2093.1404" y2="-100.4395">
							<stop  offset="0" style="stop-color:#CB236D"/>
							<stop  offset="1" style="stop-color:#4C246D"/>
						</linearGradient>
						
							<rect x="682.56" y="2700.177" style="fill:url(#SVGID_00000031927526929670090490000003369771890674871469_);" width="193.427" height="23.754"/>
						
							<linearGradient id="SVGID_00000032607723246363375060000014740925839739360950_" gradientUnits="userSpaceOnUse" x1="817.2462" y1="2702.032" x2="2120.4673" y2="-87.6736">
							<stop  offset="0" style="stop-color:#CB236D"/>
							<stop  offset="1" style="stop-color:#4C246D"/>
						</linearGradient>
						
							<rect x="682.56" y="2771.44" style="fill:url(#SVGID_00000032607723246363375060000014740925839739360950_);" width="193.427" height="23.754"/>
						
							<linearGradient id="SVGID_00000094597675511121133200000017531522817567050389_" gradientUnits="userSpaceOnUse" x1="844.5731" y1="2714.7981" x2="2147.7939" y2="-74.9074">
							<stop  offset="0" style="stop-color:#CB236D"/>
							<stop  offset="1" style="stop-color:#4C246D"/>
						</linearGradient>
						
							<rect x="682.56" y="2842.702" style="fill:url(#SVGID_00000094597675511121133200000017531522817567050389_);" width="193.427" height="23.754"/>
					</g>
				</g>
				<g>
					<path style="opacity:0.7;fill:#FFFFFF;" d="M2681.307,2909.168c0,4.523-3.667,8.19-8.19,8.19h-214.375
						c-4.523,0-8.19-3.667-8.19-8.19v-960.936c0-4.523,3.667-8.19,8.19-8.19h214.375c4.523,0,8.19,3.667,8.19,8.19V2909.168z"/>
					<g>
						
							<linearGradient id="SVGID_00000158002250477558561380000005047675752770063525_" gradientUnits="userSpaceOnUse" x1="1978.51" y1="3244.5176" x2="3281.729" y2="454.8162">
							<stop  offset="0" style="stop-color:#CB236D"/>
							<stop  offset="1" style="stop-color:#4C246D"/>
						</linearGradient>
						
							<rect x="2470.913" y="1980.764" style="fill:url(#SVGID_00000158002250477558561380000005047675752770063525_);" width="183.247" height="27.148"/>
						
							<linearGradient id="SVGID_00000039121579288537096910000014795264063784981888_" gradientUnits="userSpaceOnUse" x1="2004.5348" y1="3256.6775" x2="3307.7527" y2="466.9786">
							<stop  offset="0" style="stop-color:#CB236D"/>
							<stop  offset="1" style="stop-color:#4C246D"/>
						</linearGradient>
						
							<rect x="2470.913" y="2048.633" style="fill:url(#SVGID_00000039121579288537096910000014795264063784981888_);" width="183.247" height="27.148"/>
						
							<linearGradient id="SVGID_00000161617512979560902180000007345986147978434744_" gradientUnits="userSpaceOnUse" x1="2034.4628" y1="3270.6624" x2="3337.6819" y2="480.961">
							<stop  offset="0" style="stop-color:#CB236D"/>
							<stop  offset="1" style="stop-color:#4C246D"/>
						</linearGradient>
						
							<rect x="2470.913" y="2126.683" style="fill:url(#SVGID_00000161617512979560902180000007345986147978434744_);" width="183.247" height="27.148"/>
						
							<linearGradient id="SVGID_00000007407174862113406890000017139157386506299780_" gradientUnits="userSpaceOnUse" x1="2059.1899" y1="3282.2065" x2="3362.4092" y2="492.5052">
							<stop  offset="0" style="stop-color:#CB236D"/>
							<stop  offset="1" style="stop-color:#4C246D"/>
						</linearGradient>
						
							<rect x="2470.913" y="2191.158" style="fill:url(#SVGID_00000007407174862113406890000017139157386506299780_);" width="183.247" height="27.148"/>
						
							<linearGradient id="SVGID_00000005253005390820044870000012972827574815823539_" gradientUnits="userSpaceOnUse" x1="2089.7686" y1="3296.4958" x2="3392.9893" y2="506.791">
							<stop  offset="0" style="stop-color:#CB236D"/>
							<stop  offset="1" style="stop-color:#4C246D"/>
						</linearGradient>
						
							<rect x="2470.913" y="2269.208" style="fill:url(#SVGID_00000005253005390820044870000012972827574815823539_);" width="183.247" height="30.541"/>
						
							<linearGradient id="SVGID_00000069394530498584927490000011672791733045591226_" gradientUnits="userSpaceOnUse" x1="2116.4451" y1="3308.9573" x2="3419.6641" y2="519.2558">
							<stop  offset="0" style="stop-color:#CB236D"/>
							<stop  offset="1" style="stop-color:#4C246D"/>
						</linearGradient>
						
							<rect x="2470.913" y="2340.47" style="fill:url(#SVGID_00000069394530498584927490000011672791733045591226_);" width="183.247" height="27.148"/>
						
							<linearGradient id="SVGID_00000065760751012934989150000002449796926543416754_" gradientUnits="userSpaceOnUse" x1="2141.8201" y1="3320.811" x2="3445.0386" y2="531.1111">
							<stop  offset="0" style="stop-color:#CB236D"/>
							<stop  offset="1" style="stop-color:#4C246D"/>
						</linearGradient>
						
							<rect x="2470.913" y="2408.34" style="fill:url(#SVGID_00000065760751012934989150000002449796926543416754_);" width="183.247" height="23.754"/>
						
							<linearGradient id="SVGID_00000119096118694046422250000003586046361014976908_" gradientUnits="userSpaceOnUse" x1="2171.7495" y1="3334.793" x2="3474.968" y2="545.093">
							<stop  offset="0" style="stop-color:#CB236D"/>
							<stop  offset="1" style="stop-color:#4C246D"/>
						</linearGradient>
						
							<rect x="2470.913" y="2486.389" style="fill:url(#SVGID_00000119096118694046422250000003586046361014976908_);" width="183.247" height="23.754"/>
						
							<linearGradient id="SVGID_00000034776261631828201620000006185638938992667308_" gradientUnits="userSpaceOnUse" x1="2199.0767" y1="3347.5588" x2="3502.2974" y2="557.8541">
							<stop  offset="0" style="stop-color:#CB236D"/>
							<stop  offset="1" style="stop-color:#4C246D"/>
						</linearGradient>
						
							<rect x="2470.913" y="2554.258" style="fill:url(#SVGID_00000034776261631828201620000006185638938992667308_);" width="183.247" height="30.541"/>
						
							<linearGradient id="SVGID_00000165217769751994867980000007108761079487565446_" gradientUnits="userSpaceOnUse" x1="2225.1025" y1="3359.7163" x2="3528.321" y2="570.0164">
							<stop  offset="0" style="stop-color:#CB236D"/>
							<stop  offset="1" style="stop-color:#4C246D"/>
						</linearGradient>
						
							<rect x="2470.913" y="2625.521" style="fill:url(#SVGID_00000165217769751994867980000007108761079487565446_);" width="183.247" height="23.754"/>
						
							<linearGradient id="SVGID_00000070102055567243348600000003420363658598476174_" gradientUnits="userSpaceOnUse" x1="2253.7307" y1="3373.0903" x2="3556.949" y2="583.3904">
							<stop  offset="0" style="stop-color:#CB236D"/>
							<stop  offset="1" style="stop-color:#4C246D"/>
						</linearGradient>
						
							<rect x="2470.913" y="2700.177" style="fill:url(#SVGID_00000070102055567243348600000003420363658598476174_);" width="183.247" height="23.754"/>
						
							<linearGradient id="SVGID_00000170278455788203549050000015810610142902441369_" gradientUnits="userSpaceOnUse" x1="2281.0576" y1="3385.8564" x2="3584.2759" y2="596.1564">
							<stop  offset="0" style="stop-color:#CB236D"/>
							<stop  offset="1" style="stop-color:#4C246D"/>
						</linearGradient>
						
							<rect x="2470.913" y="2771.44" style="fill:url(#SVGID_00000170278455788203549050000015810610142902441369_);" width="183.247" height="23.754"/>
						
							<linearGradient id="SVGID_00000129164692759832028560000001126822198667429813_" gradientUnits="userSpaceOnUse" x1="2308.3845" y1="3398.6223" x2="3611.6028" y2="608.9224">
							<stop  offset="0" style="stop-color:#CB236D"/>
							<stop  offset="1" style="stop-color:#4C246D"/>
						</linearGradient>
						
							<rect x="2470.913" y="2842.702" style="fill:url(#SVGID_00000129164692759832028560000001126822198667429813_);" width="183.247" height="23.754"/>
					</g>
				</g>
			</g>
			<path style="opacity:0.7;fill:#FFFFFF;" d="M2175.682,2829.128c0,18.742-15.193,33.935-33.935,33.935h-936.595
				c-18.741,0-33.935-15.193-33.935-33.935l0,0c0-18.741,15.193-33.935,33.935-33.935h936.595
				C2160.489,2795.194,2175.682,2810.387,2175.682,2829.128L2175.682,2829.128z"/>
		</g>
		<g>
			
				<linearGradient id="SVGID_00000117661103866290237220000008696172558966282416_" gradientUnits="userSpaceOnUse" x1="584.7213" y1="3130.6389" x2="168.7283" y2="3583.123" gradientTransform="matrix(1 0 0 1 816.2426 0)">
				<stop  offset="0" style="stop-color:#CB236D"/>
				<stop  offset="1" style="stop-color:#4C246D"/>
			</linearGradient>
			<path style="fill:url(#SVGID_00000117661103866290237220000008696172558966282416_);" d="M1269.468,3164.346
				c0,0-4.308,24.389-6.42,48.531c-0.826,9.436,6.449,17.628,15.912,18.022c32.15,1.339,100.922,3.943,125.6,2.842
				c3.709-0.166,6.135-3.963,4.762-7.414l0,0c-1.15-2.891-3.369-5.229-6.197-6.528l-113.598-52.21L1269.468,3164.346z"/>
			
				<linearGradient id="SVGID_00000111889226703792128760000010531333088457304968_" gradientUnits="userSpaceOnUse" x1="449.6965" y1="3164.2461" x2="486.647" y2="3164.2461" gradientTransform="matrix(1 0 0 1 816.2426 0)">
				<stop  offset="0" style="stop-color:#F9B776"/>
				<stop  offset="1" style="stop-color:#F47960"/>
			</linearGradient>
			<path style="fill:url(#SVGID_00000111889226703792128760000010531333088457304968_);" d="M1265.939,3150.016l3.461,29.173
				c0,0,19.9,9.263,33.49-1.167l-8.241-32.51L1265.939,3150.016z"/>
			
				<linearGradient id="SVGID_00000109013316840816607610000003509199196764507030_" gradientUnits="userSpaceOnUse" x1="1437.9127" y1="2258.1255" x2="1173.2239" y2="3099.7004">
				<stop  offset="0" style="stop-color:#53D8FF"/>
				<stop  offset="1" style="stop-color:#3840F7"/>
			</linearGradient>
			<path style="fill:url(#SVGID_00000109013316840816607610000003509199196764507030_);" d="M1268.54,2601.565
				c-1.495,7.618-8.026,380.167,31.797,547.119c0.65,2.724-0.731,5.531-3.324,6.591c-6.108,2.495-18.082,6.109-32.432,6.591
				c-4.444,0.149-8.429-2.74-9.682-7.005c-11.384-38.735-65.93-232.811-73.045-418.205c-7.951-207.16,0-7.054,0-7.054l4.663-128.053
				L1268.54,2601.565z"/>
			
				<linearGradient id="SVGID_00000044886874241850607370000014361056991876032423_" gradientUnits="userSpaceOnUse" x1="491.4005" y1="3044.8435" x2="75.4069" y2="3497.3281" gradientTransform="matrix(1 0 0 1 816.2426 0)">
				<stop  offset="0" style="stop-color:#CB236D"/>
				<stop  offset="1" style="stop-color:#4C246D"/>
			</linearGradient>
			<path style="fill:url(#SVGID_00000044886874241850607370000014361056991876032423_);" d="M1138.793,3177.07
				c0,0-6.858,12.313-13.497,45.03c-1.199,5.909,2.93,11.564,8.93,12.154c10.616,1.044,26.959,2.385,40.05,2.296
				c6.035-0.041,10.745-5.296,10.018-11.287c-1.45-11.942-5.967-31.535-19.923-46.806L1138.793,3177.07z"/>
			
				<linearGradient id="SVGID_00000034062221208912044720000000427042764924546488_" gradientUnits="userSpaceOnUse" x1="316.5273" y1="3162.3508" x2="348.431" y2="3162.3508" gradientTransform="matrix(1 0 0 1 816.2426 0)">
				<stop  offset="0" style="stop-color:#F9B776"/>
				<stop  offset="1" style="stop-color:#F47960"/>
			</linearGradient>
			<path style="fill:url(#SVGID_00000034062221208912044720000000427042764924546488_);" d="M1132.77,3139.548l8.088,44.116
				c0,0,7.997,5.948,23.816,1.636l-3.861-47.467L1132.77,3139.548z"/>
			
				<linearGradient id="SVGID_00000151510385862061228030000012151444997686875032_" gradientUnits="userSpaceOnUse" x1="1346.2046" y1="2229.2817" x2="1081.5153" y2="3070.8582">
				<stop  offset="0" style="stop-color:#53D8FF"/>
				<stop  offset="1" style="stop-color:#3840F7"/>
			</linearGradient>
			<path style="fill:url(#SVGID_00000151510385862061228030000012151444997686875032_);" d="M1110.921,2612.998
				c-32.569,196.56,7.065,485.813,20.432,542.427c0.819,3.466,3.615,6.122,7.128,6.704c5.967,0.989,15.791,1.796,25.475-1.017
				c3.336-0.969,5.681-3.979,5.817-7.451c1.794-45.771-1.434-326.759,28.913-437.806c1.538-5.628,4.975-10.535,9.73-13.916
				l58.902-41.875l4.516-67.686L1110.921,2612.998z"/>
			<g>
				
					<linearGradient id="SVGID_00000038373557667428383990000013492041737353508522_" gradientUnits="userSpaceOnUse" x1="232.8177" y1="2545.0693" x2="814.235" y2="2126.6428" gradientTransform="matrix(1 0 0 1 816.2426 0)">
					<stop  offset="0" style="stop-color:#FDF53F"/>
					<stop  offset="1" style="stop-color:#D93C65"/>
				</linearGradient>
				<path style="fill:url(#SVGID_00000038373557667428383990000013492041737353508522_);" d="M1318.455,2240.555
					c-97.605-1.613-205.301,25.628-205.301,25.628c-29.094,169.763-5.087,365.571-5.087,365.571
					c75.563,19.816,160.803-12.115,160.803-12.115c12.559-70.957,71.156-270.652,71.156-270.652
					c47.69-5.919,86.975-19.678,119.328-37.868c-24.677-28.605-36.311-65.004-41.364-86.52
					C1383.48,2235.324,1348.56,2241.053,1318.455,2240.555z"/>
				
					<linearGradient id="SVGID_00000109740503425535786150000000368746291342002365_" gradientUnits="userSpaceOnUse" x1="601.7472" y1="2200.2549" x2="790.5206" y2="2200.2549" gradientTransform="matrix(1 0 0 1 816.2426 0)">
					<stop  offset="0" style="stop-color:#F9B776"/>
					<stop  offset="1" style="stop-color:#F47960"/>
				</linearGradient>
				<path style="fill:url(#SVGID_00000109740503425535786150000000368746291342002365_);" d="M1606.763,2096.788
					c-9.589-11.581-21.723-6.102-21.723-6.102c-14.363,60.672-89.676,109.867-167.05,133.913
					c5.053,21.516,16.687,57.914,41.364,86.52C1587.762,2238.92,1606.763,2096.788,1606.763,2096.788z"/>
			</g>
			<g>
				
					<linearGradient id="SVGID_00000063635831304099730990000002847187082050216340_" gradientUnits="userSpaceOnUse" x1="9699.3105" y1="2168.6118" x2="9825.9814" y2="2456.8176" gradientTransform="matrix(-1 0 0 1 11264.0205 0)">
					<stop  offset="0" style="stop-color:#F9B776"/>
					<stop  offset="1" style="stop-color:#F47960"/>
				</linearGradient>
				<path style="fill:url(#SVGID_00000063635831304099730990000002847187082050216340_);" d="M1604.436,2099.733
					c1.003,3.189-10.615,8.046-17.455-4.999c-0.239-6.252-4.041-33.035-0.305-38.128c19.896-27.125,58.47-61.128,58.47-61.128
					c6.519,6.432,1.148,12.752,1.148,12.752l-18.713,19.494c3.914,7.073,8.688,13.043,10.925,21.599
					c1.695,6.479,0.658,13.403-2.614,19.299c-3.285,5.918-7.766,13.611-12.002,19.631
					C1615.87,2099.647,1604.436,2099.733,1604.436,2099.733z"/>
				
					<linearGradient id="SVGID_00000168078932010652798960000008390404708173931415_" gradientUnits="userSpaceOnUse" x1="789.6144" y1="2072.6289" x2="842.4692" y2="1991.3644" gradientTransform="matrix(1 0 0 1 816.2426 0)">
					<stop  offset="0" style="stop-color:#F9B776"/>
					<stop  offset="1" style="stop-color:#F47960"/>
				</linearGradient>
				<path style="fill:url(#SVGID_00000168078932010652798960000008390404708173931415_);" d="M1619.396,2040.372l-17.052,14.456
					l-5.354,14.393l15.204,16.867c0,0,5.112-28.557,8.912-34.739C1624.905,2045.169,1622.934,2042.18,1619.396,2040.372z"/>
			</g>
			
				<linearGradient id="SVGID_00000179619894402522852130000001702685100068953014_" gradientUnits="userSpaceOnUse" x1="156.2025" y1="2438.6101" x2="737.6178" y2="2020.1852" gradientTransform="matrix(1 0 0 1 816.2426 0)">
				<stop  offset="0" style="stop-color:#FDF53F"/>
				<stop  offset="1" style="stop-color:#D93C65"/>
			</linearGradient>
			<path style="fill:url(#SVGID_00000179619894402522852130000001702685100068953014_);" d="M1150.592,2360.693l-37.438-94.51
				c0,0-91.168,61.945-106.161,140.484c17.226,1.269,48.572,5.749,79.254,21.241
				C1092.99,2390.824,1150.592,2360.693,1150.592,2360.693z"/>
			
				<linearGradient id="SVGID_00000118391418004281071330000001704000734554117788_" gradientUnits="userSpaceOnUse" x1="188.6726" y1="2467.6467" x2="427.5663" y2="2467.6467" gradientTransform="matrix(1 0 0 1 816.2426 0)">
				<stop  offset="0" style="stop-color:#F9B776"/>
				<stop  offset="1" style="stop-color:#F47960"/>
			</linearGradient>
			<path style="fill:url(#SVGID_00000118391418004281071330000001704000734554117788_);" d="M1230.263,2449.624
				c0,0-102.359,57.848-136.897,8.453c-7.171-10.257-8.885-20.45-7.119-30.168c-30.682-15.492-62.027-19.972-79.254-21.241
				c-4.521,23.677-2.131,48.859,11.782,74.31c60.498,110.668,225.033-6.116,225.033-6.116L1230.263,2449.624z"/>
			<g>
				
					<linearGradient id="SVGID_00000158743446478855909010000011691258596302594481_" gradientUnits="userSpaceOnUse" x1="499.8405" y1="2297.801" x2="631.1995" y2="2845.1316" gradientTransform="matrix(1 0 0 1 816.2426 0)">
					<stop  offset="0" style="stop-color:#9CFFFB"/>
					<stop  offset="1" style="stop-color:#9BFFFA"/>
				</linearGradient>
				<path style="fill:url(#SVGID_00000158743446478855909010000011691258596302594481_);" d="M1217.964,2522.808l55.864-195.088
					c0.634-2.215,2.524-3.83,4.812-4.097c10.121-1.181,39.45-4.497,73.312-7.361c40.789-3.45,88.156-6.245,116.461-3.868
					c4.024,0.338,6.456,4.594,4.666,8.214c-16.095,32.565-82.305,165.03-115.461,208.423c-1.098,1.438-2.797,2.279-4.606,2.261
					l-129.613-1.206C1219.627,2530.053,1216.926,2526.434,1217.964,2522.808z"/>
				
					<linearGradient id="SVGID_00000159445442612911053080000010226680431866287002_" gradientUnits="userSpaceOnUse" x1="582.084" y1="2211.5261" x2="554.1078" y2="2334.3774" gradientTransform="matrix(1 0 0 1 816.2426 0)">
					<stop  offset="0" style="stop-color:#53D8FF"/>
					<stop  offset="1" style="stop-color:#3840F7"/>
				</linearGradient>
				<path style="fill:url(#SVGID_00000159445442612911053080000010226680431866287002_);" d="M1357.746,2299.349l40.502-6.749
					c2.157-0.36,3.924,1.702,3.239,3.778l-4.01,12.149c-0.349,1.058-1.272,1.823-2.376,1.97l-38.975,5.206
					c-2.017,0.27-3.679-1.563-3.215-3.543l2.482-10.607C1355.661,2300.412,1356.589,2299.542,1357.746,2299.349z"/>
				
					<linearGradient id="SVGID_00000119080349310419393440000011508184013829205893_" gradientUnits="userSpaceOnUse" x1="567.4424" y1="2263.0586" x2="554.0626" y2="2343.3376" gradientTransform="matrix(1 0 0 1 816.2426 0)">
					<stop  offset="0" style="stop-color:#53D8FF"/>
					<stop  offset="1" style="stop-color:#3840F7"/>
				</linearGradient>
				<path style="fill:url(#SVGID_00000119080349310419393440000011508184013829205893_);" d="M1327.419,2333.637l3.336-17.379
					c0.335-1.743,1.774-3.06,3.54-3.24l81.806-8.301c2.754-0.28,4.958,2.244,4.312,4.934l-5.201,21.657
					c-0.417,1.733-1.924,2.985-3.704,3.074l-79.94,4.024C1328.965,2338.538,1326.928,2336.196,1327.419,2333.637z"/>
				
					<linearGradient id="SVGID_00000048476136063606731340000014246313469148906126_" gradientUnits="userSpaceOnUse" x1="409.8297" y1="2442.5989" x2="484.255" y2="2442.5989" gradientTransform="matrix(1 0 0 1 816.2426 0)">
					<stop  offset="0" style="stop-color:#F9B776"/>
					<stop  offset="1" style="stop-color:#F47960"/>
				</linearGradient>
				<path style="fill:url(#SVGID_00000048476136063606731340000014246313469148906126_);" d="M1231.461,2475.675
					c0,0-7.782-31.999-4.643-43.351c3.139-11.353,9.221-25.949,29.493-22.706c20.273,3.244,44.186,11.784,44.186,11.784
					s-1.208,14.787-16.615,10.017l9.554,7.392c0,0-1.365,11.84-14.38,5.515l8.886,9.804c0,0-5.589,9.724-15.164,3.487
					C1263.204,2451.38,1258.615,2479.528,1231.461,2475.675z"/>
			</g>
			
				<linearGradient id="SVGID_00000152261936835310831080000000648165083078405027_" gradientUnits="userSpaceOnUse" x1="372.1096" y1="2212.2544" x2="466.5605" y2="2212.2544" gradientTransform="matrix(1 0 0 1 816.2426 0)">
				<stop  offset="0" style="stop-color:#F9B776"/>
				<stop  offset="1" style="stop-color:#F47960"/>
			</linearGradient>
			<path style="fill:url(#SVGID_00000152261936835310831080000000648165083078405027_);" d="M1219.589,2161.315l-31.056,89.813
				c-0.515,1.487,0.098,3.135,1.475,3.897c8.466,4.68,38.966,18.21,75.721-5.094c3.829-2.427,6.436-6.386,7.017-10.883
				l10.057-77.733H1219.589z"/>
			<g>
				
					<linearGradient id="SVGID_00000128470556922204134700000013241098814086615220_" gradientUnits="userSpaceOnUse" x1="-5427.7261" y1="-883.3564" x2="-5463.0215" y2="-999.7685" gradientTransform="matrix(0.746 -0.6659 0.6659 0.746 5942.5781 -803.1727)">
					<stop  offset="0" style="stop-color:#F9B776"/>
					<stop  offset="1" style="stop-color:#F47960"/>
				</linearGradient>
				<path style="fill:url(#SVGID_00000128470556922204134700000013241098814086615220_);" d="M1287.164,2078.146
					c0,0,34.103,64.195,29.731,90.127c-4.371,25.931-46.637,24.07-83.544,3.009l-25.79-69.316L1287.164,2078.146z"/>
				
					<linearGradient id="SVGID_00000174586698773244450740000004496380011411470757_" gradientUnits="userSpaceOnUse" x1="-5463.376" y1="-1085.5194" x2="-5433.8521" y2="-917.1223" gradientTransform="matrix(0.746 -0.6659 0.6659 0.746 5942.5781 -803.1727)">
					<stop  offset="0" style="stop-color:#2B3582"/>
					<stop  offset="1" style="stop-color:#150E42"/>
				</linearGradient>
				<path style="fill:url(#SVGID_00000174586698773244450740000004496380011411470757_);" d="M1234.982,2137.24
					c1.5-0.664,2.053-2.499,1.155-3.872c-2.732-4.174-7.854-12.689-9.488-20.145c0,0-6.131-3.927,15.604-9.129
					c21.735-5.202,54.146-13.277,60.959-31.777c6.642-18.037-20.409-46.945-38.653-27.255c-1.18,1.273-3.134,1.406-4.192,0.03
					c-4.565-5.941-16.565-18.271-33.225-10.796c-15.59,6.995-17.347,18.42-17.133,24.178c0.063,1.694-1.452,3.011-3.116,2.693
					c-7.883-1.503-26.799-2.795-35.628,16.611c-7.272,15.983-2.546,25.031,1.759,29.456c1.395,1.433,0.783,3.794-1.129,4.38
					c-5.181,1.586-11.871,5.979-11.201,18.116c0.926,16.779,19.687,15.301,25.028,14.536c0.875-0.125,1.756,0.175,2.349,0.831
					c4.58,5.068,25.214,26.588,47.547,29.182c1.934,0.224,3.432-1.686,2.799-3.526l-9.665-28.094
					c-0.449-1.305,0.176-2.736,1.437-3.295L1234.982,2137.24z"/>
				
					<linearGradient id="SVGID_00000135677188785527526170000015255552875445491338_" gradientUnits="userSpaceOnUse" x1="-5463.8062" y1="-883.898" x2="-5495.5625" y2="-988.6369" gradientTransform="matrix(0.746 -0.6659 0.6659 0.746 5942.5781 -803.1727)">
					<stop  offset="0" style="stop-color:#F9B776"/>
					<stop  offset="1" style="stop-color:#F47960"/>
				</linearGradient>
				<path style="fill:url(#SVGID_00000135677188785527526170000015255552875445491338_);" d="M1238.867,2141.228
					c0,0-24.281-16.66-26.056-2.63c-1.774,14.029,21.866,20.321,33.575,15.091L1238.867,2141.228z"/>
			</g>
			<g>
				
					<linearGradient id="SVGID_00000078031706766080564060000005719587733110686086_" gradientUnits="userSpaceOnUse" x1="1007.5319" y1="2017.2454" x2="1112.5962" y2="1886.6655" gradientTransform="matrix(0.9052 -0.425 0.425 0.9052 -555.3581 712.5426)">
					<stop  offset="0" style="stop-color:#FDF53F"/>
					<stop  offset="1" style="stop-color:#D93C65"/>
				</linearGradient>
				<path style="fill:url(#SVGID_00000078031706766080564060000005719587733110686086_);" d="M1300.689,2049.26
					c0,0-38.694-66.816-107.831-26.894c-69.137,39.922-31.74,88.965-31.74,88.965L1300.689,2049.26z"/>
				
					<linearGradient id="SVGID_00000155121102712238441060000017869964322256087471_" gradientUnits="userSpaceOnUse" x1="1011.2886" y1="1925.2292" x2="1156.9342" y2="2012.1707" gradientTransform="matrix(0.9052 -0.425 0.425 0.9052 -555.3581 712.5426)">
					<stop  offset="0" style="stop-color:#FDF53F"/>
					<stop  offset="1" style="stop-color:#D93C65"/>
				</linearGradient>
				<path style="fill:url(#SVGID_00000155121102712238441060000017869964322256087471_);" d="M1158.942,2052.778
					c0,0,83.301-66.498,122.66,4.971c16.091-7.082,19.088-8.489,19.088-8.489s-34.954-64.013-82.629-42.457
					C1170.385,2028.357,1158.857,2038.703,1158.942,2052.778z"/>
				<path style="fill:#FFFFFF;" d="M1254.293,2071.99c-0.237,0.111-0.518,0.11-0.77-0.016l-0.538-0.295
					c-12.402-6.633-33.157-17.736-46.933-12.037c-6.645,2.743-13.107,6.887-19.358,10.88c-4.412,2.819-8.977,5.739-13.549,8.138
					c-6.228,3.271-13.087,6.774-20.961,10.7l-0.018,0.008c-0.418,0.197-0.921,0.026-1.132-0.394c-0.214-0.425-0.04-0.936,0.385-1.15
					c7.867-3.923,14.709-7.416,20.924-10.682c4.515-2.364,9.046-5.261,13.422-8.063c6.324-4.043,12.906-8.213,19.631-11.023
					c14.525-6.012,35.729,5.338,48.397,12.113l0.541,0.286c0.417,0.226,0.572,0.745,0.355,1.166
					C1254.598,2071.788,1254.456,2071.914,1254.293,2071.99z"/>
				
					<linearGradient id="SVGID_00000016756194624334111290000010256598220499354510_" gradientUnits="userSpaceOnUse" x1="954.8662" y1="2006.9154" x2="1133.2241" y2="2006.9154" gradientTransform="matrix(0.9052 -0.425 0.425 0.9052 -555.3581 712.5426)">
					<stop  offset="0" style="stop-color:#FDF53F"/>
					<stop  offset="1" style="stop-color:#D93C65"/>
				</linearGradient>
				<path style="fill:url(#SVGID_00000016756194624334111290000010256598220499354510_);" d="M1161.343,2122.142l164.275-63.188
					c1.035-0.397,1.706-1.405,1.676-2.513c-0.03-1.108-0.755-2.079-1.811-2.419c-8.475-2.73-22.497-6.551-28.111-4.039
					c-18.009,8.061-136.253,61.347-136.253,61.347S1158.175,2112.713,1161.343,2122.142z"/>
			</g>
		</g>
		<g>
			
				<linearGradient id="SVGID_00000052816274133541862810000002092511796825846173_" gradientUnits="userSpaceOnUse" x1="3095.6919" y1="1993.5222" x2="1596.3564" y2="4043.2451">
				<stop  offset="0" style="stop-color:#FDF53F"/>
				<stop  offset="1" style="stop-color:#D93C65"/>
			</linearGradient>
			
				<circle style="fill:url(#SVGID_00000052816274133541862810000002092511796825846173_);" cx="2642.986" cy="2612.411" r="587.345"/>
			<defs>
				
					<filter id="Adobe_OpacityMaskFilter" filterUnits="userSpaceOnUse" x="2180.969" y="2150.394" width="924.033" height="924.033">
					<feFlood  style="flood-color:white;flood-opacity:1" result="back"/>
					<feBlend  in="SourceGraphic" in2="back" mode="normal"/>
				</filter>
			</defs>
			
				<mask maskUnits="userSpaceOnUse" x="2180.969" y="2150.394" width="924.033" height="924.033" id="SVGID_00000006702380400884581770000003847237748397199760_">
				<g style="filter:url(#Adobe_OpacityMaskFilter);">
					<defs>
						
							<filter id="Adobe_OpacityMaskFilter_00000172424368772019643420000012233546626507620774_" filterUnits="userSpaceOnUse" x="2180.969" y="2150.394" width="924.033" height="924.033">
							<feFlood  style="flood-color:white;flood-opacity:1" result="back"/>
							<feBlend  in="SourceGraphic" in2="back" mode="normal"/>
						</filter>
					</defs>
					
						<mask maskUnits="userSpaceOnUse" x="2180.969" y="2150.394" width="924.033" height="924.033" id="SVGID_00000006702380400884581770000003847237748397199760_">
						<g style="filter:url(#Adobe_OpacityMaskFilter_00000172424368772019643420000012233546626507620774_);">
						</g>
					</mask>
					
						<linearGradient id="SVGID_00000130643154145836144740000010211367193820596400_" gradientUnits="userSpaceOnUse" x1="2366.2522" y1="2915.4495" x2="3338.0203" y2="1851.3094">
						<stop  offset="0" style="stop-color:#000000"/>
						<stop  offset="1" style="stop-color:#FFFFFF"/>
					</linearGradient>
					
						<circle style="mask:url(#SVGID_00000006702380400884581770000003847237748397199760_);fill:url(#SVGID_00000130643154145836144740000010211367193820596400_);" cx="2642.986" cy="2612.411" r="462.017"/>
				</g>
			</mask>
			
				<linearGradient id="SVGID_00000151523284395339015620000006136101238745048511_" gradientUnits="userSpaceOnUse" x1="2366.2522" y1="2915.4495" x2="3338.0203" y2="1851.3094">
				<stop  offset="0" style="stop-color:#FDF53F"/>
				<stop  offset="1" style="stop-color:#FFFFFF"/>
			</linearGradient>
			
				<circle style="fill:url(#SVGID_00000151523284395339015620000006136101238745048511_);" cx="2642.986" cy="2612.411" r="462.017"/>
			<g>
				<g style="opacity:0.56;">
					<path style="fill:#FFFFFF;" d="M3153.463,2637.642c-0.136,0-0.272-0.003-0.407-0.008c-5.619-0.222-9.993-4.956-9.771-10.575
						c0.262-6.629,0.395-13.345,0.395-19.958c0-5.622,4.558-10.18,10.18-10.18s10.18,4.558,10.18,10.18
						c0,6.88-0.137,13.865-0.411,20.763C3163.414,2633.344,3158.9,2637.642,3153.463,2637.642z"/>
					<path style="fill:#FFFFFF;" d="M2672.688,3122.267c-5.4,0-9.902-4.245-10.16-9.697c-0.267-5.617,4.07-10.386,9.685-10.653
						c13.559-0.645,27.227-1.856,40.625-3.599c5.581-0.729,10.684,3.205,11.41,8.782c0.724,5.575-3.208,10.684-8.782,11.41
						c-13.948,1.814-28.175,3.074-42.286,3.745C2673.016,3122.263,2672.852,3122.267,2672.688,3122.267z M2755.155,3111.528
						c-4.694,0-8.916-3.266-9.943-8.041c-1.181-5.498,2.316-10.911,7.813-12.094c13.239-2.847,26.52-6.285,39.474-10.222
						c5.374-1.63,11.065,1.402,12.701,6.782c1.634,5.38-1.402,11.065-6.782,12.701c-13.493,4.099-27.323,7.68-41.111,10.646
						C2756.583,3111.453,2755.864,3111.528,2755.155,3111.528z M2834.733,3087.361c-4.051,0-7.88-2.434-9.466-6.429
						c-2.073-5.224,0.482-11.143,5.708-13.218c12.576-4.991,25.104-10.575,37.239-16.596c5.035-2.504,11.145-0.443,13.643,4.593
						c2.5,5.036,0.444,11.145-4.593,13.644c-12.634,6.271-25.681,12.086-38.78,17.285
						C2837.254,3087.129,2835.983,3087.361,2834.733,3087.361z M2909.234,3050.396c-3.45,0-6.813-1.753-8.726-4.921
						c-2.906-4.813-1.359-11.07,3.455-13.976c11.584-6.992,23.029-14.561,34.018-22.497c4.56-3.289,10.923-2.263,14.213,2.293
						c3.292,4.558,2.265,10.923-2.293,14.213c-11.44,8.262-23.355,16.14-35.416,23.421
						C2912.839,3049.922,2911.025,3050.396,2909.234,3050.396z M2976.664,3001.704c-2.873,0-5.73-1.209-7.743-3.566
						c-3.654-4.273-3.15-10.701,1.124-14.353c10.291-8.798,20.349-18.135,29.895-27.756c3.96-3.99,10.404-4.015,14.397-0.055
						c3.99,3.96,4.015,10.406,0.055,14.397c-9.935,10.011-20.404,19.733-31.118,28.889
						C2981.356,3000.903,2979.003,3001.704,2976.664,3001.704z M3035.249,2942.657c-2.315,0-4.641-0.785-6.55-2.391
						c-4.302-3.62-4.855-10.043-1.235-14.344c8.727-10.369,17.128-21.222,24.97-32.263c3.258-4.586,9.61-5.662,14.195-2.404
						c4.585,3.256,5.66,9.612,2.404,14.195c-8.164,11.493-16.909,22.79-25.991,33.582
						C3041.029,2941.424,3038.149,2942.657,3035.249,2942.657z M3083.42,2874.833c-1.766,0-3.554-0.461-5.185-1.427
						c-4.835-2.868-6.429-9.115-3.561-13.95c6.911-11.648,13.42-23.731,19.347-35.913c2.461-5.059,8.552-7.158,13.609-4.701
						c5.055,2.461,7.16,8.553,4.701,13.609c-6.172,12.684-12.949,25.265-20.145,37.394
						C3090.283,2873.051,3086.896,2874.833,3083.42,2874.833z M3119.822,2800.019c-1.226,0-2.47-0.224-3.68-0.693
						c-5.243-2.033-7.843-7.93-5.809-13.173c4.898-12.626,9.325-25.617,13.159-38.614c1.591-5.394,7.258-8.47,12.646-6.883
						c5.392,1.591,8.474,7.252,6.883,12.646c-3.993,13.534-8.605,27.065-13.706,40.215
						C3127.751,2797.549,3123.9,2800.019,3119.822,2800.019z M3143.381,2720.229c-0.683,0-1.375-0.068-2.071-0.212
						c-5.506-1.138-9.047-6.525-7.909-12.031c2.741-13.252,4.963-26.792,6.605-40.243c0.683-5.584,5.784-9.557,11.339-8.873
						c5.582,0.681,9.554,5.758,8.873,11.339c-1.71,14.006-4.023,28.104-6.876,41.9
						C3152.345,2716.919,3148.108,2720.229,3143.381,2720.229z"/>
					<path style="fill:#FFFFFF;" d="M2630.854,3122.548c-0.118,0-0.234-0.002-0.351-0.007c-6.886-0.232-13.864-0.608-20.737-1.117
						c-5.607-0.414-9.818-5.295-9.402-10.903c0.414-5.607,5.286-9.844,10.903-9.402c6.603,0.489,13.307,0.848,19.925,1.072
						c5.619,0.191,10.02,4.9,9.829,10.52C2640.836,3118.214,2636.317,3122.548,2630.854,3122.548z"/>
				</g>
				<g style="opacity:0.56;">
					<path style="fill:#FFFFFF;" d="M2142.733,2617.281c-5.622,0-10.18-4.558-10.18-10.18c0-6.881,0.137-13.867,0.411-20.765
						c0.222-5.615,4.926-9.943,10.575-9.769c5.617,0.222,9.991,4.956,9.77,10.575c-0.262,6.629-0.394,13.345-0.394,19.96
						C2152.914,2612.723,2148.355,2617.281,2142.733,2617.281z"/>
					<path style="fill:#FFFFFF;" d="M2146.569,2554.807c-0.416,0-0.837-0.027-1.259-0.078c-5.581-0.688-9.546-5.77-8.858-11.35
						c1.751-14.202,4.124-28.498,7.052-42.493c1.152-5.501,6.535-9.029,12.051-7.879c5.503,1.152,9.031,6.547,7.879,12.049
						c-2.813,13.441-5.092,27.173-6.774,40.814C2156.024,2551.027,2151.636,2554.807,2146.569,2554.807z M2163.854,2472.229
						c-0.966,0-1.947-0.139-2.92-0.429c-5.387-1.611-8.449-7.284-6.838-12.671c4.101-13.715,8.836-27.419,14.076-40.735
						c2.056-5.231,7.97-7.811,13.199-5.746c5.233,2.058,7.806,7.969,5.746,13.199c-5.029,12.785-9.576,25.946-13.512,39.114
						C2172.285,2469.375,2168.237,2472.229,2163.854,2472.229z M2194.739,2393.676c-1.514,0-3.051-0.338-4.5-1.054
						c-5.041-2.49-7.108-8.596-4.62-13.637c6.333-12.818,13.292-25.535,20.684-37.8c2.903-4.815,9.156-6.363,13.975-3.463
						c4.815,2.903,6.366,9.16,3.463,13.975c-7.1,11.78-13.784,23.995-19.865,36.306
						C2202.1,2391.594,2198.492,2393.676,2194.739,2393.676z M2238.308,2321.394c-2.068,0-4.152-0.626-5.957-1.93
						c-4.557-3.294-5.579-9.658-2.285-14.215c8.374-11.582,17.347-22.964,26.669-33.83c3.662-4.265,10.089-4.755,14.356-1.097
						c4.267,3.662,4.757,10.089,1.097,14.356c-8.956,10.439-17.577,21.373-25.622,32.501
						C2244.577,2319.931,2241.465,2321.394,2238.308,2321.394z M2293.271,2257.349c-2.628,0-5.256-1.012-7.248-3.031
						c-3.948-4.003-3.904-10.449,0.098-14.397c10.192-10.053,20.924-19.794,31.897-28.952c4.318-3.602,10.739-3.024,14.339,1.292
						c3.602,4.316,3.024,10.737-1.292,14.339c-10.543,8.798-20.853,18.157-30.644,27.815
						C2298.438,2256.373,2295.853,2257.349,2293.271,2257.349z M2358.067,2203.277c-3.205,0-6.358-1.51-8.339-4.331
						c-3.231-4.6-2.121-10.949,2.48-14.182c11.719-8.232,23.917-16.059,36.251-23.265c4.858-2.837,11.09-1.2,13.925,3.655
						c2.837,4.855,1.2,11.088-3.655,13.925c-11.845,6.921-23.56,14.439-34.819,22.347
						C2362.13,2202.676,2360.088,2203.277,2358.067,2203.277z M2430.915,2160.713c-3.801,0-7.45-2.139-9.195-5.8
						c-2.421-5.075-0.27-11.151,4.805-13.572c12.928-6.166,26.258-11.849,39.62-16.893c5.264-1.988,11.135,0.669,13.12,5.929
						c1.985,5.261-0.669,11.135-5.928,13.12c-12.83,4.843-25.63,10.301-38.046,16.221
						C2433.878,2160.395,2432.385,2160.713,2430.915,2160.713z M2801.359,2135.307c-1.021,0-2.058-0.156-3.083-0.48
						c-13.097-4.156-26.533-7.804-39.933-10.843c-5.483-1.243-8.919-6.696-7.677-12.18c1.243-5.484,6.704-8.921,12.18-7.677
						c13.955,3.165,27.948,6.964,41.59,11.294c5.359,1.7,8.324,7.423,6.623,12.783
						C2809.684,2132.538,2805.675,2135.307,2801.359,2135.307z M2509.833,2130.915c-4.437,0-8.515-2.923-9.788-7.402
						c-1.536-5.408,1.602-11.039,7.01-12.575c13.761-3.909,27.857-7.281,41.898-10.02c5.524-1.09,10.865,2.524,11.942,8.041
						c1.077,5.519-2.524,10.865-8.041,11.942c-13.484,2.631-27.022,5.869-40.234,9.622
						C2511.69,2130.789,2510.754,2130.915,2509.833,2130.915z M2719.063,2116.632c-0.47,0-0.946-0.033-1.425-0.1
						c-13.592-1.904-27.453-3.259-41.197-4.03c-5.614-0.313-9.91-5.12-9.595-10.732c0.313-5.615,5.13-9.942,10.732-9.595
						c14.306,0.8,28.735,2.21,42.884,4.192c5.569,0.781,9.45,5.927,8.671,11.494
						C2728.418,2112.95,2724.058,2116.632,2719.063,2116.632z M2592.633,2114.746c-5.125,0-9.536-3.861-10.107-9.073
						c-0.611-5.591,3.423-10.616,9.012-11.229c14.177-1.551,28.632-2.53,42.965-2.908c5.65-0.048,10.298,4.288,10.446,9.909
						c0.147,5.62-4.288,10.296-9.909,10.446c-13.774,0.363-27.665,1.304-41.285,2.795
						C2593.377,2114.724,2593.004,2114.746,2592.633,2114.746z"/>
					<path style="fill:#FFFFFF;" d="M2859.895,2157.999c-1.427,0-2.876-0.302-4.259-0.938c-6.036-2.785-12.182-5.471-18.266-7.987
						c-5.196-2.146-7.668-8.099-5.521-13.295c2.147-5.198,8.104-7.67,13.296-5.521c6.336,2.618,12.737,5.415,19.022,8.315
						c5.105,2.354,7.334,8.404,4.979,13.509C2867.427,2155.805,2863.744,2157.999,2859.895,2157.999z"/>
				</g>
			</g>
			<g>
				
					<linearGradient id="SVGID_00000134231298914712362880000017510669029178153879_" gradientUnits="userSpaceOnUse" x1="2332.5894" y1="2903.8882" x2="2853.9583" y2="2211.4199">
					<stop  offset="0" style="stop-color:#CB236D"/>
					<stop  offset="1" style="stop-color:#4C246D"/>
				</linearGradient>
				<path style="fill:url(#SVGID_00000134231298914712362880000017510669029178153879_);" d="M2544.032,2234.301h305.261
					c14.505,0,23.975,15.221,17.566,28.233l-118.805,241.211c-8.965,18.201,4.281,39.49,24.57,39.49h64.313
					c18.555,0,29.495,20.816,18.973,36.099l-337.421,490.064c-6.741,9.79-22.093,4.234-21.005-7.603l35.633-388.003
					c0.981-10.68-7.426-19.894-18.151-19.894h-62.434c-23.597,0-40.805-22.334-34.787-45.151l91.733-347.823
					C2513.616,2245.233,2527.806,2234.301,2544.032,2234.301z"/>
				
					<linearGradient id="SVGID_00000067947050537068918830000003385889612673355926_" gradientUnits="userSpaceOnUse" x1="2847.4763" y1="2160.6331" x2="2126.0442" y2="3289.8296">
					<stop  offset="0" style="stop-color:#CB236D"/>
					<stop  offset="1" style="stop-color:#4C246D"/>
				</linearGradient>
				<path style="fill:url(#SVGID_00000067947050537068918830000003385889612673355926_);" d="M2509.131,3063.807
					c-0.342,0-0.756-0.171-0.963-0.398c-0.057-0.062-0.152-0.166-0.108-0.643l35.632-388.001c0.741-8.057-1.962-16.106-7.416-22.082
					c-5.452-5.978-13.22-9.405-21.312-9.405h-62.433c-7.927,0-15.248-3.601-20.086-9.881c-4.838-6.279-6.452-14.276-4.432-21.94
					l91.734-347.824c2.906-11.015,12.892-18.709,24.285-18.709h305.26c4.493,0,6.818,2.956,7.608,4.227
					c0.79,1.271,2.416,4.661,0.43,8.693l-118.805,241.209c-5.843,11.863-5.16,25.647,1.824,36.875
					c6.986,11.228,19.051,17.93,32.274,17.93h64.312c4.697,0,8.805,2.482,10.99,6.639c2.185,4.156,1.899,8.947-0.763,12.815
					l-337.421,490.064C2509.443,3063.807,2509.305,3063.807,2509.131,3063.807z"/>
			</g>
			<path style="opacity:0.56;fill:#FFFFFF;" d="M2531.521,3001.128c-0.616,0-1.24-0.105-1.844-0.323
				c-2.316-0.84-3.777-3.14-3.549-5.593l9.091-98.998c0.214-2.337,2.273-4.058,4.62-3.842c2.336,0.215,4.056,2.283,3.842,4.619
				l-8.015,87.271l152.293-221.187c1.33-1.933,3.974-2.421,5.909-1.09c1.932,1.331,2.421,3.977,1.09,5.909l-158.973,230.888
				C2534.951,3000.282,2533.265,3001.128,2531.521,3001.128z"/>
			<path style="opacity:0.56;fill:#FFFFFF;" d="M2485.558,2480.822c-0.359,0-0.723-0.046-1.087-0.141
				c-2.269-0.599-3.622-2.923-3.024-5.192l54.732-207.524c0.941-3.562,4.169-6.049,7.854-6.049h55.047
				c2.346,0,4.248,1.902,4.248,4.248c0,2.346-1.902,4.249-4.248,4.249h-54.759l-54.657,207.244
				C2489.161,2479.561,2487.44,2480.822,2485.558,2480.822z"/>
		</g>
	</g>
</g>
</svg>
