<svg width="191" height="39" viewBox="0 0 191 39" fill="none" xmlns="http://www.w3.org/2000/svg">
<path d="M19.0976 33.1016C18.746 33.1016 18.4609 33.3867 18.4609 33.738V37.5575C18.4609 37.9088 18.746 38.1941 19.0976 38.1941C19.4491 38.1941 19.7342 37.9088 19.7342 37.5575V33.738C19.7342 33.3867 19.4491 33.1016 19.0976 33.1016Z" fill="#4AAB3D"/>
<path d="M19.0976 5.09253C19.4491 5.09253 19.7342 4.80742 19.7342 4.45611V0.636653C19.7342 0.28534 19.4491 0 19.0976 0C18.746 0 18.4609 0.28534 18.4609 0.636653V4.45611C18.4609 4.80742 18.746 5.09253 19.0976 5.09253Z" fill="#4AAB3D"/>
<path d="M4.45611 18.4604H0.636653C0.28534 18.4604 0 18.7456 0 19.0971C0 19.4486 0.28534 19.7339 0.636653 19.7339H4.45611C4.80742 19.7339 5.09253 19.4486 5.09253 19.0971C5.09253 18.7456 4.80742 18.4604 4.45611 18.4604Z" fill="#4AAB3D"/>
<path d="M37.5574 18.4604H33.738C33.3867 18.4604 33.1016 18.7456 33.1016 19.0971C33.1016 19.4486 33.3867 19.7339 33.738 19.7339H37.5574C37.9087 19.7339 38.1941 19.4486 38.1941 19.0971C38.1941 18.7456 37.9087 18.4604 37.5574 18.4604Z" fill="#4AAB3D"/>
<path d="M19.8718 18.857C19.7515 18.7057 19.7063 18.5071 19.7494 18.3173L21.0836 12.5371L15.3984 19.0971H17.8238C18.0178 19.0971 18.2012 19.1857 18.322 19.3372C18.443 19.4885 18.4875 19.6872 18.4444 19.8769L17.1102 25.6572L22.7954 19.0971H20.37C20.176 19.0971 19.9926 19.0085 19.8718 18.857Z" fill="#4AAB3D"/>
<path d="M19.0969 6.36572C12.0767 6.36572 6.36523 12.0771 6.36523 19.0973C6.36523 26.1175 12.0767 31.829 19.0969 31.829C26.1171 31.829 31.8286 26.1175 31.8286 19.0973C31.8286 12.0771 26.1171 6.36572 19.0969 6.36572ZM24.6708 18.8777L16.3953 28.4264C16.2712 28.5695 16.0943 28.646 15.9139 28.646C15.8167 28.646 15.7171 28.6238 15.6257 28.5772C15.3646 28.445 15.2276 28.1515 15.2942 27.8662L17.0235 20.3704H14.0044C13.7547 20.3704 13.5288 20.2247 13.4251 19.9986C13.3213 19.7722 13.3596 19.5058 13.523 19.3176L21.7985 9.76905C21.9902 9.54758 22.3079 9.48581 22.5681 9.61822C22.8292 9.7504 22.9662 10.0441 22.8996 10.3292L21.1696 17.8247H24.1887C24.4382 17.8247 24.6643 17.9704 24.7683 18.1966C24.8718 18.4234 24.8338 18.6894 24.6708 18.8777Z" fill="#4AAB3D"/>
<path d="M29.8995 29.0005C29.6503 28.7518 29.2481 28.7518 28.9994 29.0005C28.7502 29.2495 28.7502 29.6519 28.9994 29.9006L31.6994 32.6011C31.8237 32.7251 31.9868 32.7876 32.1496 32.7876C32.3125 32.7876 32.4755 32.7251 32.5995 32.6011C32.8485 32.3521 32.8485 31.9497 32.5995 31.701L29.8995 29.0005Z" fill="#4AAB3D"/>
<path d="M8.29489 9.19402C8.41891 9.31804 8.5821 9.38052 8.74505 9.38052C8.908 9.38052 9.07095 9.31804 9.19497 9.19402C9.44418 8.94505 9.44418 8.54268 9.19497 8.29394L6.49404 5.59347C6.2453 5.3445 5.84223 5.3445 5.59396 5.59347C5.34498 5.84244 5.34498 6.24481 5.59396 6.49355L8.29489 9.19402Z" fill="#4AAB3D"/>
<path d="M8.29489 29.0005L5.59396 31.701C5.34498 31.9497 5.34498 32.3521 5.59396 32.6011C5.71798 32.7251 5.88116 32.7876 6.04411 32.7876C6.20706 32.7876 6.36978 32.7251 6.49404 32.6011L9.19497 29.9006C9.44418 29.6519 9.44418 29.2495 9.19497 29.0005C8.94623 28.7518 8.54317 28.7518 8.29489 29.0005Z" fill="#4AAB3D"/>
<path d="M31.7005 5.59347L29 8.29394C28.7513 8.54268 28.7513 8.94505 29 9.19402C29.1243 9.31804 29.287 9.38052 29.45 9.38052C29.6129 9.38052 29.7761 9.31804 29.9001 9.19402L32.6006 6.49355C32.8496 6.24481 32.8496 5.84244 32.6006 5.59347C32.3516 5.3445 31.9488 5.3445 31.7005 5.59347Z" fill="#4AAB3D"/>
<path d="M49.6513 30V8.18182H58.6641C60.2976 8.18182 61.7074 8.47656 62.8935 9.06605C64.0866 9.64844 65.0064 10.4865 65.6527 11.5803C66.299 12.6669 66.6222 13.956 66.6222 15.4474C66.6222 16.9602 66.2919 18.2457 65.6314 19.304C64.9709 20.3551 64.0334 21.1577 62.8189 21.7116C61.6044 22.2585 60.1662 22.532 58.5043 22.532H52.8047V18.3771H57.5241C58.3196 18.3771 58.9837 18.2741 59.5163 18.0682C60.0561 17.8551 60.4645 17.5355 60.7415 17.1094C61.0185 16.6761 61.157 16.1222 61.157 15.4474C61.157 14.7727 61.0185 14.2152 60.7415 13.7749C60.4645 13.3274 60.0561 12.9936 59.5163 12.7734C58.9766 12.5462 58.3125 12.4325 57.5241 12.4325H54.9247V30H49.6513ZM61.9347 20.0284L67.3679 30H61.6151L56.2884 20.0284H61.9347ZM76.8414 30.3089C75.1298 30.3089 73.6525 29.9716 72.4096 29.2969C71.1738 28.6151 70.2221 27.6456 69.5545 26.3885C68.894 25.1243 68.5637 23.6222 68.5637 21.8821C68.5637 20.1918 68.8975 18.7145 69.5652 17.4503C70.2328 16.179 71.1738 15.1918 72.3883 14.4886C73.6028 13.7784 75.0339 13.4233 76.6816 13.4233C77.8464 13.4233 78.9118 13.6044 79.8777 13.9666C80.8436 14.3288 81.6781 14.8651 82.3812 15.5753C83.0843 16.2855 83.6312 17.1626 84.0218 18.2067C84.4125 19.2436 84.6078 20.4332 84.6078 21.7756V23.0753H70.3855V20.0497H79.7605C79.7534 19.4957 79.622 19.0021 79.3663 18.5689C79.1106 18.1357 78.7591 17.7983 78.3116 17.5568C77.8713 17.3082 77.3635 17.1839 76.7882 17.1839C76.2058 17.1839 75.6838 17.3153 75.2221 17.5781C74.7605 17.8338 74.3947 18.1854 74.1248 18.6328C73.8549 19.0732 73.7129 19.5739 73.6987 20.1349V23.2138C73.6987 23.8814 73.8301 24.4673 74.0929 24.9716C74.3556 25.4687 74.7285 25.8558 75.2115 26.1328C75.6944 26.4098 76.2697 26.5483 76.9373 26.5483C77.399 26.5483 77.818 26.4844 78.1944 26.3565C78.5708 26.2287 78.894 26.0405 79.1639 25.7919C79.4338 25.5433 79.6362 25.2379 79.7711 24.8757L84.5545 25.0142C84.3556 26.0866 83.9189 27.0206 83.2441 27.8161C82.5765 28.6044 81.6994 29.2187 80.6127 29.6591C79.5261 30.0923 78.269 30.3089 76.8414 30.3089ZM87.2685 30V8.18182H102.482V12.4645H92.5419V16.9389H101.704V21.2322H92.5419V25.7173H102.482V30H87.2685ZM110.994 20.6676V30H105.784V13.6364H110.738V16.6406H110.919C111.281 15.6392 111.899 14.8544 112.773 14.2862C113.646 13.7109 114.687 13.4233 115.894 13.4233C117.045 13.4233 118.043 13.6825 118.888 14.201C119.74 14.7124 120.401 15.4297 120.869 16.353C121.345 17.2692 121.58 18.3416 121.572 19.5703V30H116.363V20.593C116.37 19.6839 116.139 18.9737 115.67 18.4624C115.209 17.951 114.566 17.6953 113.742 17.6953C113.195 17.6953 112.712 17.8161 112.293 18.0575C111.881 18.2919 111.562 18.6293 111.335 19.0696C111.114 19.5099 111.001 20.0426 110.994 20.6676ZM132.447 30.3089C130.735 30.3089 129.258 29.9716 128.015 29.2969C126.779 28.6151 125.828 27.6456 125.16 26.3885C124.499 25.1243 124.169 23.6222 124.169 21.8821C124.169 20.1918 124.503 18.7145 125.171 17.4503C125.838 16.179 126.779 15.1918 127.994 14.4886C129.208 13.7784 130.639 13.4233 132.287 13.4233C133.452 13.4233 134.517 13.6044 135.483 13.9666C136.449 14.3288 137.284 14.8651 137.987 15.5753C138.69 16.2855 139.237 17.1626 139.627 18.2067C140.018 19.2436 140.213 20.4332 140.213 21.7756V23.0753H125.991V20.0497H135.366C135.359 19.4957 135.227 19.0021 134.972 18.5689C134.716 18.1357 134.365 17.7983 133.917 17.5568C133.477 17.3082 132.969 17.1839 132.394 17.1839C131.811 17.1839 131.289 17.3153 130.828 17.5781C130.366 17.8338 130 18.1854 129.73 18.6328C129.46 19.0732 129.318 19.5739 129.304 20.1349V23.2138C129.304 23.8814 129.436 24.4673 129.698 24.9716C129.961 25.4687 130.334 25.8558 130.817 26.1328C131.3 26.4098 131.875 26.5483 132.543 26.5483C133.004 26.5483 133.423 26.4844 133.8 26.3565C134.176 26.2287 134.499 26.0405 134.769 25.7919C135.039 25.5433 135.242 25.2379 135.377 24.8757L140.16 25.0142C139.961 26.0866 139.524 27.0206 138.85 27.8161C138.182 28.6044 137.305 29.2187 136.218 29.6591C135.132 30.0923 133.874 30.3089 132.447 30.3089ZM142.874 30V13.6364H147.934V16.6193H148.105C148.403 15.5398 148.89 14.7372 149.564 14.2116C150.239 13.679 151.024 13.4126 151.919 13.4126C152.16 13.4126 152.409 13.4304 152.664 13.4659C152.92 13.4943 153.158 13.5405 153.378 13.6044V18.1321C153.13 18.0469 152.803 17.9794 152.398 17.9297C152 17.88 151.645 17.8551 151.333 17.8551C150.715 17.8551 150.157 17.9936 149.66 18.2706C149.17 18.5405 148.783 18.9205 148.499 19.4105C148.222 19.8935 148.083 20.4616 148.083 21.1151V30H142.874ZM162.279 36.4773C160.724 36.4773 159.392 36.2607 158.284 35.8274C157.176 35.3942 156.306 34.8011 155.674 34.0483C155.042 33.2955 154.662 32.4432 154.534 31.4915L159.467 31.2145C159.559 31.5483 159.729 31.8395 159.978 32.0881C160.234 32.3366 160.564 32.5284 160.969 32.6634C161.381 32.7983 161.864 32.8658 162.418 32.8658C163.291 32.8658 164.012 32.6527 164.58 32.2266C165.156 31.8075 165.443 31.0724 165.443 30.0213V27.1449H165.262C165.056 27.6491 164.744 28.1001 164.325 28.4979C163.906 28.8956 163.384 29.2081 162.759 29.4354C162.141 29.6626 161.43 29.7763 160.628 29.7763C159.435 29.7763 158.341 29.4993 157.347 28.9453C156.359 28.3842 155.567 27.5178 154.971 26.3459C154.381 25.1669 154.087 23.6506 154.087 21.7969C154.087 19.8864 154.392 18.3132 155.003 17.0774C155.614 15.8345 156.413 14.9148 157.4 14.3182C158.394 13.7216 159.463 13.4233 160.607 13.4233C161.466 13.4233 162.201 13.5724 162.812 13.8707C163.43 14.1619 163.938 14.5384 164.335 15C164.733 15.4616 165.035 15.9411 165.241 16.4382H165.39V13.6364H170.578V30.0639C170.578 31.4489 170.23 32.6172 169.534 33.5689C168.838 34.5206 167.865 35.2415 166.615 35.7315C165.365 36.2287 163.92 36.4773 162.279 36.4773ZM162.439 25.9837C163.071 25.9837 163.611 25.8168 164.058 25.483C164.506 25.1491 164.85 24.6697 165.092 24.0447C165.333 23.4197 165.454 22.6705 165.454 21.7969C165.454 20.9091 165.333 20.1456 165.092 19.5064C164.857 18.8601 164.513 18.3629 164.058 18.0149C163.611 17.6669 163.071 17.4929 162.439 17.4929C161.793 17.4929 161.246 17.6705 160.798 18.0256C160.351 18.3807 160.01 18.8814 159.776 19.5277C159.548 20.1669 159.435 20.9233 159.435 21.7969C159.435 22.6705 159.552 23.4197 159.786 24.0447C160.021 24.6697 160.358 25.1491 160.798 25.483C161.246 25.8168 161.793 25.9837 162.439 25.9837ZM177.085 36.1364C176.46 36.1364 175.87 36.0866 175.316 35.9872C174.762 35.8949 174.286 35.7706 173.889 35.6143L175.039 31.8324C175.551 32.0028 176.012 32.1023 176.424 32.1307C176.843 32.1591 177.202 32.0916 177.5 31.9283C177.806 31.772 178.04 31.4915 178.203 31.0866L178.406 30.5966L172.589 13.6364H178.044L181.058 25.3125H181.229L184.286 13.6364H189.773L183.605 31.5661C183.306 32.4609 182.884 33.2493 182.337 33.9311C181.797 34.62 181.097 35.1598 180.238 35.5504C179.386 35.9411 178.335 36.1364 177.085 36.1364Z" fill="#1E1E1E"/>
</svg>
